<svg width="145" height="67" viewBox="0 0 145 67" fill="none" xmlns="http://www.w3.org/2000/svg">
<path d="M54.7093 40.2174C54.4746 40.2174 54.2399 40.1214 54.0052 39.9294C53.7812 39.7481 53.5839 39.4441 53.4132 39.0174C53.2426 38.5908 53.1252 38.0254 53.0613 37.3214C53.0079 36.8948 52.9013 36.5588 52.7412 36.3134C52.6026 36.1214 52.5333 35.9188 52.5333 35.7054C52.5333 35.5454 52.5973 35.3588 52.7252 35.1454C52.7892 35.0494 52.8319 34.9481 52.8532 34.8414C52.8853 34.7348 52.9013 34.5481 52.9013 34.2814L52.8532 31.9134C52.8532 31.6041 52.7572 31.3214 52.5652 31.0654C52.3519 30.7668 52.2452 30.4948 52.2452 30.2494C52.2452 30.0574 52.2879 29.8814 52.3733 29.7214C52.4586 29.5614 52.5546 29.4068 52.6612 29.2574C52.7679 29.1081 52.8532 28.9641 52.9173 28.8254C53.0026 28.6228 53.1519 28.4574 53.3652 28.3294C53.5786 28.2014 53.7973 28.1374 54.0213 28.1374C54.1919 28.1374 54.3519 28.1801 54.5012 28.2654C54.6506 28.3401 54.9172 28.3774 55.3012 28.3774C55.6959 28.3774 56.1706 28.3561 56.7253 28.3134C57.3866 28.2601 58.0426 28.2334 58.6932 28.2334C59.1093 28.2334 59.4986 28.2548 59.8613 28.2974C60.2239 28.3401 60.5333 28.4201 60.7893 28.5374C61.0559 28.6441 61.2532 28.7934 61.3813 28.9854C61.5092 29.1668 61.5732 29.3481 61.5732 29.5294C61.5732 29.7748 61.4772 29.9934 61.2852 30.1854C61.0933 30.3668 60.8212 30.4574 60.4692 30.4574L60.1973 30.4414C59.7706 30.3881 59.3386 30.3614 58.9012 30.3614C58.0159 30.3614 57.1306 30.4308 56.2453 30.5694H56.2292C55.9306 30.5908 55.7386 30.6388 55.6533 30.7134C55.5679 30.7774 55.5253 30.9641 55.5253 31.2734L55.5412 32.3934H55.6053C55.6053 32.6708 55.5999 32.9108 55.5893 33.1134V33.4814C55.5893 33.7374 55.6106 33.9081 55.6533 33.9934C55.6959 34.0681 55.7866 34.1054 55.9253 34.1054C56.0319 34.1054 56.1546 34.0948 56.2932 34.0734C56.4426 34.0521 56.6079 34.0361 56.7893 34.0254L57.5412 33.9614C58.0959 33.9081 58.5226 33.8814 58.8212 33.8814C59.1839 33.8814 59.4772 33.9508 59.7012 34.0894C60.0639 34.3454 60.2453 34.6281 60.2453 34.9374C60.2453 35.2041 60.1226 35.4494 59.8772 35.6734C59.6426 35.8974 59.3013 36.0414 58.8533 36.1054L57.5892 36.2494C56.7999 36.3134 56.2666 36.3881 55.9893 36.4734C55.7119 36.5588 55.5732 36.7508 55.5732 37.0494C55.5732 37.2308 55.6052 37.4814 55.6693 37.8014C55.7652 38.3454 55.8132 38.7028 55.8132 38.8734C55.8132 39.2574 55.7012 39.5774 55.4772 39.8334C55.2533 40.0894 54.9973 40.2174 54.7093 40.2174ZM76.0239 40.2334C75.4905 40.2334 74.9839 40.1108 74.5039 39.8654C74.0239 39.6201 73.6132 39.2361 73.2719 38.7134C72.7599 37.9028 72.5039 36.8841 72.5039 35.6574C72.5039 35.0814 72.5465 34.4948 72.6319 33.8974C72.7172 33.2894 72.8132 32.6921 72.9199 32.1054C73.0159 31.5828 73.1012 31.0814 73.1759 30.6014C73.2505 30.1108 73.2879 29.6574 73.2879 29.2414V29.1294C73.2772 28.8308 73.0639 28.6814 72.6479 28.6814C72.1145 28.6814 71.4105 28.8788 70.5359 29.2734C69.6719 29.6681 68.9732 30.0734 68.4399 30.4894C68.1092 30.7348 67.9439 30.9428 67.9439 31.1134C67.9439 31.1988 67.9919 31.3001 68.0879 31.4174C68.1945 31.5241 68.3385 31.6574 68.5199 31.8174C68.8079 32.0628 69.1865 32.4414 69.6559 32.9534C70.3599 33.7428 70.7119 34.5801 70.7119 35.4654C70.7119 36.4468 70.3439 37.3108 69.6079 38.0574C68.6479 39.0281 67.4959 39.5134 66.1519 39.5134C65.2559 39.5134 64.5359 39.2841 63.9919 38.8254C63.4479 38.3561 63.0532 37.7481 62.8079 37.0014C62.5625 36.2548 62.4399 35.4708 62.4399 34.6494C62.4399 33.7641 62.5572 32.9108 62.7919 32.0894C63.0265 31.2574 63.3465 30.5748 63.7519 30.0414C64.1572 29.5081 64.6052 29.2414 65.0959 29.2414C65.2345 29.2414 65.3732 29.2628 65.5119 29.3054H65.5279C65.6452 29.3054 65.9279 29.1348 66.3759 28.7934C66.7812 28.4841 67.2985 28.1321 67.9279 27.7374C68.5679 27.3321 69.2825 26.9801 70.0719 26.6814C70.8719 26.3721 71.7145 26.2174 72.5999 26.2174C72.8985 26.2174 73.2025 26.2388 73.5119 26.2814C74.2479 26.4094 74.7812 26.6548 75.1119 27.0174C75.4532 27.3694 75.6719 27.7694 75.7679 28.2174C75.8745 28.6654 75.9332 29.0921 75.9439 29.4974C75.9652 29.8068 75.9972 30.0628 76.0399 30.2654C76.0932 30.4681 76.1945 30.5854 76.3439 30.6174C77.1332 30.7561 77.8905 31.0388 78.6159 31.4654C79.3412 31.8921 79.9439 32.4308 80.4239 33.0814C80.9039 33.7214 81.1439 34.4254 81.1439 35.1934C81.1439 35.5454 81.0852 35.9028 80.9679 36.2654C80.5305 37.4708 79.8425 38.4308 78.9039 39.1454C77.9652 39.8708 77.0052 40.2334 76.0239 40.2334ZM66.5199 36.5374C66.8292 36.5374 67.1119 36.4148 67.3679 36.1694C67.6345 35.9134 67.7679 35.6361 67.7679 35.3374C67.7679 35.2094 67.7359 35.0814 67.6719 34.9534C67.5545 34.7721 67.2452 34.4148 66.7439 33.8814C66.1359 33.2414 65.7305 32.9214 65.5279 32.9214C65.3785 32.9214 65.3039 33.3588 65.3039 34.2334C65.3039 35.0974 65.4265 35.7001 65.6719 36.0414C65.9279 36.3721 66.2105 36.5374 66.5199 36.5374ZM76.2959 37.2894C76.7012 37.2894 77.1119 37.0548 77.5279 36.5854C77.9439 36.1054 78.1519 35.6361 78.1519 35.1774C78.1519 34.9214 78.0665 34.6974 77.8959 34.5054C77.3092 33.8761 76.5679 33.4121 75.6719 33.1134C75.4799 34.0948 75.3839 34.8894 75.3839 35.4974C75.3839 36.1588 75.4745 36.6228 75.6559 36.8894C75.8372 37.1561 76.0505 37.2894 76.2959 37.2894ZM91.8398 40.0574C91.4878 40.0574 91.1678 39.9028 90.8798 39.5934C90.6345 39.2734 90.4638 38.9321 90.3678 38.5694C90.2825 38.1961 90.2238 37.7961 90.1918 37.3694C90.1598 36.9321 90.0905 36.4628 89.9838 35.9614C89.8451 35.9828 89.7011 36.1374 89.5518 36.4254C89.4238 36.7561 89.0611 37.2894 88.4638 38.0254C87.4611 39.1668 86.4531 39.7374 85.4398 39.7374C84.5651 39.7374 83.8345 39.3641 83.2478 38.6174C82.6611 37.8601 82.3678 36.9748 82.3678 35.9614C82.3678 35.3214 82.5065 34.6708 82.7838 34.0094C83.3918 32.5588 84.6558 31.4281 86.5758 30.6174C87.2905 30.3401 87.8931 30.2014 88.3838 30.2014C88.4478 30.2014 88.5065 30.2068 88.5598 30.2174H88.7038C88.8425 30.2174 88.9491 30.1854 89.0238 30.1214C89.0985 30.0468 89.1571 29.8868 89.1998 29.6414C89.2531 29.3854 89.3118 28.9908 89.3758 28.4574C89.4398 27.9241 89.5411 27.2041 89.6798 26.2974C89.7651 25.7961 89.9305 25.4281 90.1758 25.1934C90.4318 24.9481 90.7145 24.8254 91.0238 24.8254C91.3011 24.8254 91.5678 24.9161 91.8238 25.0974C92.2505 25.4601 92.5118 26.2548 92.6078 27.4814C92.6825 28.4841 92.7198 29.6201 92.7198 30.8894V31.7534C92.7198 32.8948 92.7358 34.0361 92.7678 35.1774C92.8105 36.3188 92.9065 37.3854 93.0558 38.3774C93.0771 38.4948 93.0878 38.6068 93.0878 38.7134C93.0878 39.1508 92.9598 39.4814 92.7038 39.7054C92.4478 39.9401 92.1598 40.0574 91.8398 40.0574ZM85.5358 37.1294C86.0905 37.1294 86.7358 36.4574 87.4718 35.1134C87.7385 34.6228 87.9785 34.1321 88.1918 33.6414C88.4051 33.1401 88.5118 32.7668 88.5118 32.5214C88.5118 32.3721 88.4585 32.2974 88.3518 32.2974L88.2398 32.3134C87.4398 32.6334 86.7945 33.0228 86.3038 33.4814C85.8238 33.9401 85.4718 34.4148 85.2478 34.9054C85.0345 35.3961 84.9278 35.8281 84.9278 36.2014C84.9278 36.4788 84.9811 36.7028 85.0878 36.8734C85.1945 37.0441 85.3438 37.1294 85.5358 37.1294ZM98.9666 40.2974C98.2732 40.2974 97.8199 39.6361 97.6066 38.3134C97.4572 37.4388 97.3772 36.1108 97.3666 34.3294C97.3666 33.3694 97.3346 32.5534 97.2706 31.8814C97.2172 31.2094 97.0572 30.8734 96.7906 30.8734C96.2359 30.9161 95.7559 30.9961 95.3506 31.1134C95.0199 31.2201 94.7266 31.2734 94.4706 31.2734C94.2572 31.2734 94.0706 31.2201 93.9106 31.1134C93.7506 30.9961 93.6012 30.7881 93.4626 30.4894C93.3666 30.2761 93.3186 30.0841 93.3186 29.9134C93.3186 29.4761 93.5852 29.1454 94.1186 28.9214C94.6412 28.6974 95.3186 28.5374 96.1506 28.4414C96.9826 28.3348 97.8839 28.2494 98.8546 28.1854C100.337 28.1001 101.708 27.9401 102.967 27.7054C103.084 27.6841 103.201 27.6734 103.319 27.6734C103.681 27.6734 103.975 27.7801 104.199 27.9934C104.433 28.1961 104.551 28.4308 104.551 28.6974C104.551 28.9748 104.407 29.2468 104.119 29.5134C103.841 29.7694 103.372 29.9614 102.711 30.0894C101.921 30.2281 101.297 30.3134 100.839 30.3454C100.391 30.3774 100.081 30.4308 99.9106 30.5054C99.7399 30.5801 99.6546 30.7721 99.6546 31.0814C99.6546 31.3054 99.6812 31.6148 99.7346 32.0094C99.8412 32.7028 99.9212 33.8228 99.9746 35.3694C99.9959 36.2121 100.028 36.9214 100.071 37.4974C100.113 38.0094 100.135 38.4414 100.135 38.7934C100.135 39.2201 100.081 39.5454 99.9746 39.7694C99.8679 39.9934 99.6652 40.1481 99.3666 40.2334C99.2279 40.2761 99.0946 40.2974 98.9666 40.2974ZM106.335 40.0094C105.471 40.0094 104.937 39.6521 104.735 38.9374C104.596 38.4681 104.527 37.9401 104.527 37.3534C104.527 36.8841 104.543 36.4041 104.575 35.9134C104.607 35.4654 104.623 35.0601 104.623 34.6974C104.623 34.3134 104.591 33.9934 104.527 33.7374C104.377 33.1934 104.303 32.6388 104.303 32.0734V31.3374C104.303 31.0494 104.399 30.7988 104.591 30.5854C104.793 30.3721 105.039 30.2654 105.327 30.2654C105.561 30.2654 105.812 30.3614 106.079 30.5534C106.345 30.7348 106.532 30.9801 106.639 31.2894C106.681 31.4174 106.729 31.4814 106.783 31.4814C106.868 31.4814 107.055 31.3694 107.343 31.1454C108.057 30.6014 108.751 30.2121 109.423 29.9774C110.095 29.7428 110.708 29.6254 111.263 29.6254C111.945 29.6254 112.495 29.7694 112.911 30.0574C113.337 30.3348 113.551 30.6761 113.551 31.0814C113.551 31.2308 113.519 31.3854 113.455 31.5454C113.337 31.8121 113.199 31.9934 113.039 32.0894C112.879 32.1854 112.703 32.2334 112.511 32.2334C112.351 32.2334 112.175 32.2174 111.983 32.1854C111.791 32.1428 111.593 32.1214 111.391 32.1214C111.209 32.1214 111.023 32.1534 110.831 32.2174C109.785 32.6334 109.023 33.1614 108.543 33.8014C108.073 34.4414 107.769 35.1188 107.631 35.8334C107.503 36.5374 107.433 37.2041 107.423 37.8334C107.401 38.2494 107.364 38.6228 107.311 38.9534C107.268 39.2841 107.172 39.5401 107.023 39.7214C106.884 39.9134 106.655 40.0094 106.335 40.0094ZM117.782 39.9454C116.993 39.9454 116.342 39.7268 115.83 39.2894C115.318 38.8628 114.934 38.2974 114.678 37.5934C114.433 36.8894 114.31 36.1374 114.31 35.3374C114.31 34.1428 114.572 32.9908 115.094 31.8814C115.628 30.7721 116.406 29.9828 117.43 29.5134C117.75 29.3854 118.022 29.3214 118.246 29.3214C118.502 29.3214 118.71 29.3748 118.87 29.4814C119.041 29.5774 119.196 29.6841 119.334 29.8014C119.516 29.9721 119.702 30.0841 119.894 30.1374C120.769 30.3614 121.43 30.9374 121.878 31.8654C122.326 32.7934 122.566 33.7534 122.598 34.7454C122.385 36.3774 121.814 37.6308 120.886 38.5054C119.884 39.4654 118.849 39.9454 117.782 39.9454ZM117.814 37.0014C117.921 37.0014 118.038 36.9694 118.166 36.9054C118.561 36.6814 118.876 36.3508 119.11 35.9134C119.356 35.4654 119.478 35.0014 119.478 34.5214L119.462 34.2014C119.409 33.7428 119.281 33.3321 119.078 32.9694C118.886 32.6068 118.561 32.1801 118.102 31.6894C117.761 31.9241 117.494 32.3774 117.302 33.0494C117.121 33.7214 117.03 34.3988 117.03 35.0814C117.03 35.6041 117.089 36.0574 117.206 36.4414C117.334 36.8148 117.537 37.0014 117.814 37.0014ZM128.081 41.3214C127.302 41.3214 126.635 40.7401 126.081 39.5774C125.718 38.7988 125.323 37.6201 124.897 36.0414C124.683 35.1881 124.465 34.4628 124.241 33.8654C123.985 33.1614 123.857 32.5961 123.857 32.1694C123.857 31.7428 123.953 31.4334 124.145 31.2414C124.337 31.0494 124.561 30.9534 124.817 30.9534C125.083 30.9534 125.35 31.0441 125.617 31.2254C125.883 31.4068 126.081 31.6468 126.209 31.9454C126.785 33.4281 127.206 34.6494 127.473 35.6094C127.633 36.1534 127.766 36.5801 127.873 36.8894C127.99 37.1881 128.113 37.3374 128.241 37.3374C128.422 37.3374 128.667 36.9374 128.977 36.1374C129.222 35.5294 129.745 34.0574 130.545 31.7214C130.769 31.1134 131.03 30.6761 131.329 30.4094C131.627 30.1321 131.921 29.9934 132.209 29.9934C132.497 29.9934 132.742 30.1108 132.945 30.3454C133.147 30.5694 133.249 30.8734 133.249 31.2574C133.249 31.4388 133.217 31.6361 133.153 31.8494C132.769 33.2041 132.353 34.5374 131.905 35.8494C131.467 37.1508 130.998 38.2761 130.497 39.2254C130.006 40.1854 129.494 40.8094 128.961 41.0974C128.641 41.2468 128.347 41.3214 128.081 41.3214ZM139.857 40.0734H139.409C138.182 40.0734 137.185 39.8334 136.417 39.3534C135.66 38.8734 135.1 38.2494 134.737 37.4814C134.385 36.7028 134.209 35.8708 134.209 34.9854C134.209 34.1961 134.337 33.4068 134.593 32.6174C134.86 31.8281 135.228 31.1134 135.697 30.4734C136.177 29.8228 136.748 29.3054 137.409 28.9214C138.081 28.5268 138.822 28.3294 139.633 28.3294C139.878 28.3294 140.134 28.3508 140.401 28.3934C141.361 28.5641 142.049 28.9161 142.465 29.4494C142.892 29.9721 143.105 30.5534 143.105 31.1934C143.105 31.8121 142.945 32.4201 142.625 33.0174C142.305 33.6148 141.873 34.1108 141.329 34.5054C140.785 34.9001 140.177 35.0974 139.505 35.0974C138.961 35.0974 138.39 34.9321 137.793 34.6014C137.75 34.5801 137.702 34.5534 137.649 34.5214C137.606 34.4894 137.558 34.4628 137.505 34.4414C137.462 34.4094 137.42 34.3934 137.377 34.3934C137.292 34.3934 137.249 34.5588 137.249 34.8894C137.249 35.5401 137.494 36.0788 137.985 36.5054C138.486 36.9321 139.11 37.1454 139.857 37.1454C140.593 37.1454 141.334 36.9321 142.081 36.5054C142.262 36.4094 142.438 36.3241 142.609 36.2494C142.79 36.1748 142.998 36.1374 143.233 36.1374L143.441 36.1534C143.836 36.1961 144.129 36.3134 144.321 36.5054C144.513 36.6868 144.609 36.9054 144.609 37.1614C144.609 37.5454 144.412 37.9668 144.017 38.4254C143.633 38.8841 143.084 39.2734 142.369 39.5934C141.654 39.9134 140.817 40.0734 139.857 40.0734ZM139.473 32.8414C139.537 32.8414 139.622 32.8148 139.729 32.7614C140.049 32.6014 140.284 32.4148 140.433 32.2014C140.582 31.9881 140.657 31.7801 140.657 31.5774C140.657 31.3748 140.593 31.2041 140.465 31.0654C140.337 30.9161 140.15 30.8414 139.905 30.8414C139.542 30.8414 139.148 31.0121 138.721 31.3534C138.305 31.6948 138.097 31.9561 138.097 32.1374C138.097 32.2228 138.156 32.2708 138.273 32.2814C138.636 32.3134 138.924 32.4361 139.137 32.6494C139.254 32.7774 139.366 32.8414 139.473 32.8414Z" fill="black"/>
<path d="M40.4889 44.4268C34.469 48.5274 26.2356 46.9653 22.1356 40.9462C18.0355 34.9272 19.5963 26.6935 25.6162 22.5929C31.636 18.4924 39.8694 20.0545 43.9694 26.0735C48.0695 32.0926 46.5079 40.3268 40.4889 44.4268ZM26.153 23.381C20.568 27.1854 19.1201 34.8238 22.9245 40.4089C26.7289 45.9939 34.3678 47.4426 39.952 43.6387C45.5363 39.8348 46.9857 32.1954 43.1813 26.6103C39.377 21.0253 31.738 19.5766 26.153 23.381Z" fill="#CDCDCD"/>
<path d="M42.3491 24.6917L41.9514 24.6921C41.5809 24.6921 41.2488 24.6501 40.9953 24.6034C41.031 24.3471 41.1332 23.9013 41.2135 23.5987L41.3155 23.2144L40.9289 23.3061C40.4857 23.4114 40.0813 23.4401 39.8348 23.4455L39.8281 23.4239C39.7765 23.2681 39.7556 22.6367 39.7564 22.2372L39.7573 21.8398L39.4061 22.0267C39.1143 22.1824 38.8316 22.2931 38.6077 22.3683C38.6389 22.0435 38.6877 21.7113 38.6892 21.7069L38.7476 21.3136L38.3739 21.4476C37.9154 21.6122 37.4927 21.6842 37.2496 21.7145C37.1889 21.35 37.1479 20.8676 37.1475 20.8621L37.1131 20.4661L36.7799 20.6828C36.5655 20.822 36.3548 20.9349 36.1683 21.0233C36.3113 20.3052 36.365 19.7617 36.3304 19.4056C36.2352 18.4314 36.1501 16.1887 36.1368 15.8272C36.1492 15.6902 36.113 15.4284 35.7215 15.2041C35.488 15.0699 35.1754 14.9781 34.84 14.9463C34.3679 14.9007 33.9296 14.9799 33.6679 15.1581C33.553 15.2364 33.4722 15.3347 33.4311 15.4445C33.2846 15.65 33.0164 16.1441 33.1183 16.9011C33.1664 17.2537 33.2651 17.6423 33.3696 18.0543C33.5309 18.6901 33.6983 19.3479 33.6602 19.841C33.6369 20.1388 33.5125 20.6555 33.2974 21.3443C33.1113 21.1812 32.7772 20.8142 32.561 20.5602L32.3026 20.2577L32.158 20.6279C32.0145 20.9962 31.8401 21.3059 31.7036 21.5228C31.4343 21.2925 31.138 21.0044 31.1345 21.0011L30.8498 20.7232L30.7395 21.1053C30.6426 21.4419 30.5178 21.736 30.4077 21.9599C30.1318 21.8319 29.7232 21.5975 29.556 21.4989L29.2139 21.2954L29.196 21.6929C29.1806 22.0308 29.131 22.3351 29.0787 22.5754C28.7378 22.4654 28.3425 22.3073 28.338 22.3058L27.9691 22.1581L28.0132 22.5532C28.0587 22.9587 28.0467 23.3249 28.0266 23.5774C27.7742 23.5606 27.3012 23.4804 26.9834 23.4161L26.5941 23.3368L26.7079 23.7174C26.8235 24.1025 26.8774 24.4602 26.9017 24.7096C26.6568 24.7355 26.1567 24.7306 25.822 24.7165L25.4249 24.6993L25.5976 25.058C25.7879 25.4524 25.9019 25.8283 25.9624 26.0724C25.6994 26.0901 25.267 26.0846 24.9678 26.0724L24.5708 26.0553L24.7437 26.4126C24.9606 26.8628 25.0771 27.2825 25.1305 27.5178C24.8838 27.5745 24.4078 27.635 24.0836 27.6648L23.6879 27.7013L23.907 28.0329C24.1477 28.3964 24.3103 28.7517 24.404 28.9845C24.1886 29.0654 23.6667 29.1821 23.3203 29.2476L22.9297 29.3216L23.1793 29.6313C23.4589 29.9784 23.6549 30.3212 23.7697 30.5465C23.5255 30.6652 23.0893 30.8293 22.8208 30.9224L22.4453 31.052L22.737 31.3216C23.0029 31.5668 23.2152 31.82 23.3633 32.0158C23.0857 32.1389 22.7002 32.2788 22.5373 32.3352L22.1618 32.4648L22.4535 32.7344C22.7838 33.0391 23.0314 33.3559 23.1744 33.5574C22.8351 33.7067 22.3689 33.8685 22.3632 33.8701L21.9877 33.9997L22.2794 34.2694C22.5516 34.5205 22.7665 34.7776 22.9202 34.9832C22.8337 35.0547 22.6883 35.1651 22.4453 35.3306C22.2465 35.466 22.0797 35.5717 22.0782 35.5727L21.7423 35.7856L22.0888 35.9804C22.4847 36.2029 22.801 36.4569 22.9869 36.6213L22.9777 36.6412C22.9088 36.7905 22.4956 37.2686 22.2244 37.5613L21.9535 37.8527L22.338 37.9534C22.6581 38.0377 22.9401 38.148 23.1563 38.2451C22.913 38.462 22.6506 38.6726 22.6473 38.676L22.3371 38.9248L22.7031 39.0801C23.0904 39.2448 23.4095 39.4413 23.622 39.5864C23.4893 39.8087 23.2188 40.1793 23.0256 40.428L22.7815 40.7421L23.1738 40.809C23.5105 40.8661 23.81 40.9554 24.0357 41.0347C23.9953 41.2407 23.789 41.7722 23.6428 42.1117L23.4857 42.4767L23.8817 42.4423C24.2363 42.4122 24.5605 42.4243 24.8047 42.4456C24.6847 42.6751 24.4374 43.0595 24.2594 43.3172L24.0336 43.6449L24.4288 43.6894C24.7969 43.7308 25.1226 43.8102 25.3688 43.8846C25.3044 44.1354 25.1523 44.5663 25.0388 44.8585L24.8947 45.2295L25.2893 45.1812C25.7406 45.1262 26.1457 45.1435 26.3924 45.1653L26.397 45.1871C26.4307 45.3483 26.381 45.9779 26.3349 46.3741L26.2891 46.7691L26.6589 46.6229C26.9667 46.5007 27.2602 46.4225 27.4908 46.3723C27.4236 46.6908 27.337 47.0159 27.3367 47.0205L27.2348 47.4049L27.6213 47.3132C28.0318 47.2166 28.4062 47.1855 28.6615 47.1764C28.6857 47.4339 28.6885 47.8935 28.6796 48.2076L28.6692 48.6046L29.0242 48.4265C29.409 48.2337 29.7742 48.1157 30.0229 48.0486C30.1131 48.2645 30.2503 48.7746 30.3293 49.1141L30.4194 49.5017L30.718 49.2392C30.9533 49.0323 31.2273 48.8355 31.507 48.6688L31.5147 48.675C31.6408 48.78 31.9952 49.3036 32.207 49.6413L32.4175 49.9787L32.6155 49.6336C32.773 49.3592 32.9448 49.124 33.0863 48.948L33.0918 48.9511C33.239 49.0236 33.7042 49.4513 33.9884 49.7317L34.2708 50.0111L34.3837 49.6295C34.4422 49.4316 34.5163 49.23 34.6034 49.0308C34.8105 49.1012 35.3012 49.3626 35.6149 49.5445L35.9593 49.743L35.9718 49.3458C35.9748 49.2334 35.983 49.1187 35.9944 49.0018C36.2373 49.1081 36.6027 49.2991 36.855 49.4409L37.2014 49.6358L37.2092 49.2383C37.2155 48.9305 37.2515 48.6479 37.2912 48.4242C37.4767 48.4695 38.014 48.731 38.3525 48.9108L38.7032 49.097L38.7021 48.6999C38.7014 48.3617 38.7369 48.0533 38.7749 47.8205C39.0668 47.957 39.3555 48.1105 39.3592 48.1125L39.7105 48.2995L39.7094 47.9024C39.7083 47.4803 39.7619 47.1084 39.8128 46.8544C40.1144 46.8933 40.5811 46.996 40.7707 47.0408L41.157 47.1323L41.0555 46.7479C40.9615 46.3913 40.9183 46.0593 40.899 45.8155C41.2027 45.836 41.6113 45.8918 41.781 45.9172L42.174 45.9769L42.0415 45.6022C41.9919 45.4609 41.9467 45.3144 41.9084 45.1632L42.0017 45.1883L41.9127 44.8022C41.9099 44.7916 41.9077 44.7817 41.9058 44.7705C42.268 44.7966 42.7195 44.8619 42.7247 44.8629L43.1182 44.92L42.9829 44.5461C42.85 44.1774 42.7759 43.8334 42.7364 43.5818C42.8635 43.5782 42.949 43.5768 42.9503 43.577L43.3474 43.5726L43.3405 43.5591C43.5012 43.5815 43.6173 43.6001 43.6186 43.6003L44.0117 43.6634L43.8821 43.2879C43.7249 42.8335 43.6579 42.4164 43.6296 42.1663C43.8009 42.0973 44.4006 42.0048 44.7843 41.9606L45.1791 41.9145L44.9523 41.5881C44.6583 41.1666 44.4731 40.7528 44.3856 40.5327C44.6584 40.3992 45.1062 40.2272 45.2929 40.1591L45.6662 40.023L45.3697 39.7579C45.072 39.4911 44.8392 39.2144 44.6908 39.0199L44.6923 39.0189C44.7911 38.8868 45.2975 38.5089 45.6246 38.2815L45.9515 38.0554L45.5979 37.8734C45.3692 37.7564 45.1417 37.6158 44.9209 37.457L44.8616 37.4099C44.8169 37.3744 44.7731 37.3384 44.7289 37.3002C44.9913 37.1465 45.4712 36.9299 45.6539 36.8509L46.0192 36.693L45.7077 36.4459C45.3657 36.1742 45.1028 35.8883 44.9414 35.6948C45.2153 35.4594 45.5642 35.1989 45.5688 35.1958L45.8878 34.9581L45.5283 34.7892C45.3241 34.693 45.121 34.5801 44.9222 34.4518C45.0602 34.2305 45.3297 33.8718 45.522 33.6317L45.7708 33.3213L45.3803 33.2486C45.0628 33.1897 44.7785 33.1026 44.5598 33.0254C44.7981 32.7744 45.0816 32.5097 45.0857 32.5057L45.3759 32.2342L44.9999 32.1061C44.6017 31.9704 44.2685 31.7983 44.0463 31.669C44.1618 31.438 44.4049 31.0473 44.5789 30.7855L44.7992 30.4547L44.4041 30.417C44.0853 30.3863 43.797 30.3269 43.5658 30.2661C43.7137 30.0676 44.0509 29.7049 44.2857 29.4689L44.5664 29.1867L44.1856 29.0733C43.7875 28.9545 43.4503 28.7966 43.2285 28.6794C43.3103 28.4475 43.5299 27.9989 43.6869 27.7021L43.8732 27.3514L43.4753 27.353C43.1579 27.3543 42.8676 27.3236 42.6429 27.2891C42.657 27.0862 42.8054 26.5248 42.9139 26.1667L43.0286 25.7862L42.6386 25.8643C42.3083 25.9302 42.0018 25.9559 41.7565 25.9628L41.8185 25.7568L41.8094 25.7585C41.9134 25.5273 42.0557 25.244 42.1667 25.0365L42.3542 24.686L42.3491 24.6917Z" fill="#CBCBCB"/>
<path d="M32.3704 13.7683C32.3704 13.7683 31.9023 14.2543 32.0262 15.1737C32.15 16.093 32.6534 17.3677 32.5853 18.2507C32.5173 19.1337 31.7038 21.3054 31.7038 21.3054L32.7156 22.7907L34.0902 21.7248C34.0902 21.7248 34.9531 18.9249 34.8435 17.8094C34.7339 16.6939 34.6403 14.025 34.6403 14.025L32.3704 13.7683Z" fill="#433709"/>
<path d="M33.2641 13.8731C33.2845 14.4071 33.5385 16.6122 33.6344 17.5858C33.7441 18.7013 32.8811 21.5012 32.8811 21.5012L31.9727 22.0233L32.4799 22.7679L33.8545 21.702C33.8545 21.702 34.7175 18.9021 34.6079 17.7866C34.4982 16.6711 34.4046 14.0022 34.4046 14.0022L33.2654 13.8734L33.2641 13.8731Z" fill="#261C02"/>
<path d="M34.6458 14.0808C34.6177 14.3716 34.0732 14.5584 33.4305 14.496C32.787 14.4342 32.2891 14.147 32.3166 13.8554C32.3447 13.5646 32.8893 13.3778 33.532 13.4402C34.1755 13.5021 34.6734 13.7892 34.6458 14.0808Z" fill="#FCD3B3"/>
<path d="M31.9275 20.1512C31.9275 20.1512 27.4836 20.1774 24.1079 26.1121C20.733 32.0462 21.2807 37.0272 23.5871 41.3125C25.8927 45.5984 28.5357 47.6846 32.6211 47.9867C36.7058 48.2894 43.3278 41.9622 43.3209 37.5848C43.3121 31.9549 41.7861 26.8526 40.1981 24.4764C38.6102 22.1001 36.3974 20.9827 35.2555 20.5329C34.1149 20.0833 32.891 20.0087 32.891 20.0087L31.9283 20.1507L31.9275 20.1512Z" fill="#4B5B19"/>
<path d="M29.5723 19.6007C29.5723 19.6007 30.3072 20.3175 30.5635 20.4419L30.8191 20.5668L30.3184 21.5455C30.3184 21.5455 29.6269 20.9242 29.6382 20.904C29.6494 20.8838 29.5715 19.6013 29.5715 19.6013L29.5723 19.6007Z" fill="#6B7B3E"/>
<path d="M29.5713 19.601C29.3442 20.3889 28.9754 20.9572 28.9754 20.9572L30.318 21.5465L29.5719 19.6017L29.5713 19.601Z" fill="#4B5B19"/>
<path d="M27.9945 20.148C27.9945 20.148 28.8766 20.6736 29.155 20.7352L29.4334 20.7968L29.1746 21.8654C29.1746 21.8654 28.3574 21.4217 28.3637 21.3992C28.37 21.3767 27.9953 20.1474 27.9953 20.1474L27.9945 20.148Z" fill="#6B7B3E"/>
<path d="M27.9947 20.148C27.957 20.9671 27.7317 21.6059 27.7317 21.6059L29.1748 21.8654L27.9947 20.148Z" fill="#4B5B19"/>
<path d="M26.775 20.9941C26.775 20.9941 27.7291 21.3752 28.0126 21.3924L28.2973 21.4099L28.2092 22.5055C28.2092 22.5055 27.3329 22.1953 27.3353 22.1721C27.3377 22.1488 26.7758 20.9936 26.7758 20.9936L26.775 20.9941Z" fill="#6B7B3E"/>
<path d="M26.7757 20.994C26.8672 21.8092 26.7436 22.4755 26.7436 22.4755L28.2091 22.5059L26.7749 20.9946L26.7757 20.994Z" fill="#4B5B19"/>
<path d="M23.3887 24.8853C23.3887 24.8853 24.415 24.9284 24.6886 24.8512L24.963 24.7734L25.2436 25.8361C25.2436 25.8361 24.3136 25.8342 24.3084 25.8115C24.3032 25.7889 23.39 24.8855 23.39 24.8855L23.3887 24.8853Z" fill="#6B7B3E"/>
<path d="M23.3889 24.885C23.7452 25.6234 23.8501 26.293 23.8501 26.293L25.2433 25.8351L23.3897 24.8845L23.3889 24.885Z" fill="#4B5B19"/>
<path d="M24.2695 23.4907C24.2695 23.4907 25.2958 23.5339 25.5695 23.4566L25.8439 23.3789L26.1244 24.4416C26.1244 24.4416 25.1944 24.4396 25.1892 24.417C25.1841 24.3944 24.2708 23.491 24.2708 23.491L24.2695 23.4907Z" fill="#6B7B3E"/>
<path d="M24.2698 23.4905C24.6261 24.2288 24.731 24.8985 24.731 24.8985L26.1241 24.4406L24.2706 23.49L24.2698 23.4905Z" fill="#4B5B19"/>
<path d="M25.4238 22.1484C25.4238 22.1484 26.4304 22.3529 26.7133 22.3193L26.9962 22.2857L27.1059 23.3796C27.1059 23.3796 26.1874 23.2311 26.1864 23.2079C26.1854 23.1847 25.4251 22.1487 25.4251 22.1487L25.4238 22.1484Z" fill="#6B7B3E"/>
<path d="M25.4241 22.1485C25.66 22.9336 25.6571 23.6119 25.6571 23.6119L27.1049 23.3794L25.4241 22.1485Z" fill="#4B5B19"/>
<path d="M31.0235 19.1309C31.0235 19.1309 31.69 19.9125 31.9333 20.0594L32.1771 20.2071L31.5886 21.1354C31.5886 21.1354 30.9574 20.4524 30.9705 20.4333C30.9836 20.4141 31.0237 19.1296 31.0237 19.1296L31.0235 19.1309Z" fill="#6B7B3E"/>
<path d="M31.0235 19.1311C30.7252 19.8947 30.3052 20.4263 30.3052 20.4263L31.5878 21.1361L31.0229 19.1303L31.0235 19.1311Z" fill="#4B5B19"/>
<path d="M20.9785 31.3164C20.9785 31.3164 21.9489 30.9805 22.175 30.8083L22.4018 30.6356L23.0519 31.5216C23.0519 31.5216 22.1857 31.8604 22.173 31.8418C22.1603 31.8232 20.9785 31.3164 20.9785 31.3164Z" fill="#6B7B3E"/>
<path d="M20.9785 31.3164C21.5803 31.8727 21.923 32.4577 21.923 32.4577L23.0519 31.5216L20.9785 31.3164Z" fill="#4B5B19"/>
<path d="M21.2715 29.8628C21.2715 29.8628 22.2419 29.5269 22.4679 29.3547L22.6947 29.182L23.3449 30.068C23.3449 30.068 22.4787 30.4068 22.466 30.3882C22.4533 30.3695 21.2715 29.8628 21.2715 29.8628Z" fill="#6B7B3E"/>
<path d="M21.2715 29.8628C21.8732 30.4191 22.216 31.0041 22.216 31.0041L23.3449 30.068L21.2715 29.8628Z" fill="#4B5B19"/>
<path d="M21.7508 28.1489C21.7508 28.1489 22.7604 27.959 23.009 27.8216L23.2583 27.6836L23.7717 28.6559C23.7717 28.6559 22.8654 28.864 22.855 28.8438C22.8454 28.823 21.75 28.1494 21.75 28.1494L21.7508 28.1489Z" fill="#6B7B3E"/>
<path d="M21.7508 28.1489C22.2653 28.7874 22.5186 29.4163 22.5186 29.4163L23.7717 28.6559L21.7508 28.1489Z" fill="#4B5B19"/>
<path d="M22.5117 26.5234C22.5117 26.5234 23.5346 26.428 23.7948 26.3144L24.0558 26.2003L24.4771 27.216C24.4771 27.216 23.5551 27.3393 23.5471 27.3175C23.5391 27.2957 22.5117 26.5234 22.5117 26.5234Z" fill="#6B7B3E"/>
<path d="M22.5126 26.5234C22.965 27.2076 23.1591 27.8563 23.1591 27.8563L24.4775 27.2151L22.5126 26.5234Z" fill="#4B5B19"/>
<path d="M20.7988 32.8965C20.7988 32.8965 21.7693 32.5606 21.9953 32.3884L22.2221 32.2157L22.8722 33.1017C22.8722 33.1017 22.006 33.4405 21.9934 33.4219C21.9807 33.4032 20.7988 32.8965 20.7988 32.8965Z" fill="#6B7B3E"/>
<path d="M20.7988 32.8965C21.4006 33.4528 21.7433 34.0378 21.7433 34.0378L22.8722 33.1017L20.7988 32.8965Z" fill="#4B5B19"/>
<path d="M20.5568 34.624C20.5568 34.624 21.4232 34.0736 21.6037 33.8529L21.7842 33.6322L22.6215 34.3441C22.6215 34.3441 21.857 34.8739 21.8397 34.8584C21.8223 34.843 20.5563 34.6232 20.5563 34.6232L20.5568 34.624Z" fill="#6B7B3E"/>
<path d="M20.5566 34.624C21.2707 35.0265 21.7397 35.5164 21.7397 35.5164L22.6218 34.3449L20.5574 34.6235L20.5566 34.624Z" fill="#4B5B19"/>
<path d="M20.7545 36.6297C20.7545 36.6297 21.4542 35.8779 21.5722 35.6191L21.6916 35.3604L22.6816 35.8376C22.6816 35.8376 22.0758 36.5435 22.0556 36.5322C22.0347 36.5215 20.7545 36.6297 20.7545 36.6297Z" fill="#6B7B3E"/>
<path d="M20.7539 36.6299C21.5466 36.839 22.1237 37.1939 22.1237 37.1939L22.6811 35.8378L20.7539 36.6299Z" fill="#4B5B19"/>
<path d="M21.1642 37.8012C21.1642 37.8012 21.965 37.1579 22.1198 36.9195L22.2745 36.6811L23.1849 37.2966C23.1849 37.2966 22.4835 37.9073 22.4651 37.8937C22.4467 37.8801 21.1634 37.8017 21.1634 37.8017L21.1642 37.8012Z" fill="#6B7B3E"/>
<path d="M21.1648 37.8012C21.9193 38.1228 22.4385 38.558 22.4385 38.558L23.1855 37.2967L21.1641 37.8018L21.1648 37.8012Z" fill="#4B5B19"/>
<path d="M21.5931 39.563C21.5931 39.563 22.2234 38.7528 22.319 38.4842L22.4145 38.2157L23.443 38.6041C23.443 38.6041 22.902 39.3602 22.8801 39.3513C22.8589 39.3419 21.5926 39.5622 21.5926 39.5622L21.5931 39.563Z" fill="#6B7B3E"/>
<path d="M21.5945 39.5629C22.4027 39.7013 23.0084 40.0048 23.0084 40.0048L23.4442 38.6054L21.5938 39.5635L21.5945 39.5629Z" fill="#4B5B19"/>
<path d="M22.2602 41.2416C22.2602 41.2416 22.6656 40.2982 22.6904 40.0142L22.7152 39.7301L23.8082 39.8461C23.8082 39.8461 23.4758 40.7148 23.4528 40.7112C23.4298 40.7075 22.2605 41.2403 22.2605 41.2403L22.2602 41.2416Z" fill="#6B7B3E"/>
<path d="M22.2602 41.2417C23.0775 41.1716 23.74 41.3114 23.74 41.3114L23.8074 39.8468L22.2597 41.241L22.2602 41.2417Z" fill="#4B5B19"/>
<path d="M22.8718 42.5247C22.8718 42.5247 23.4541 41.6791 23.5342 41.4062L23.6144 41.1334L24.6636 41.4622C24.6636 41.4622 24.167 42.2484 24.1447 42.2408C24.1225 42.2332 22.8715 42.526 22.8715 42.526L22.8718 42.5247Z" fill="#6B7B3E"/>
<path d="M22.8711 42.5249C23.6861 42.6166 24.3081 42.884 24.3081 42.884L24.6624 41.4616L22.8711 42.5249Z" fill="#4B5B19"/>
<path d="M23.6995 44.06C23.6995 44.06 24.0717 43.1028 24.0863 42.8189L24.1009 42.535L25.1972 42.6124C25.1972 42.6124 24.8951 43.4922 24.8727 43.4893C24.8494 43.4869 23.6995 44.06 23.6995 44.06Z" fill="#6B7B3E"/>
<path d="M23.6989 44.06C24.5127 43.9615 25.1802 44.0786 25.1802 44.0786L25.1965 42.6124L23.6989 44.06Z" fill="#4B5B19"/>
<path d="M25.048 45.5579C25.048 45.5579 25.1658 44.5376 25.1078 44.2588L25.0498 43.9801L26.1307 43.778C26.1307 43.778 26.061 44.7053 26.0381 44.7084C26.0152 44.7115 25.0475 45.5571 25.0475 45.5571L25.048 45.5579Z" fill="#6B7B3E"/>
<path d="M25.0475 45.5577C25.8106 45.2562 26.4852 45.2002 26.4852 45.2002L26.1302 43.7778L25.0475 45.5577Z" fill="#4B5B19"/>
<path d="M26.0731 46.2587C26.0731 46.2587 26.3371 45.2662 26.3199 44.9823L26.3035 44.6979L27.4025 44.6541C27.4025 44.6541 27.1999 45.5616 27.1762 45.5619C27.1533 45.5616 26.0731 46.2587 26.0731 46.2587Z" fill="#6B7B3E"/>
<path d="M26.0739 46.2586C26.8722 46.0705 27.5478 46.1128 27.5478 46.1128L27.4019 44.6537L26.0733 46.2578L26.0739 46.2586Z" fill="#4B5B19"/>
<path d="M27.4618 47.4238C27.4618 47.4238 27.4901 46.3974 27.4079 46.1249L27.3257 45.8524L28.3846 45.5562C28.3846 45.5562 28.3963 46.4861 28.3742 46.492C28.3516 46.4972 27.4623 47.4246 27.4623 47.4246L27.4618 47.4238Z" fill="#6B7B3E"/>
<path d="M27.4618 47.4238C28.1948 47.0563 28.8623 46.9415 28.8623 46.9415L28.3841 45.5553L27.4618 47.4238Z" fill="#4B5B19"/>
<path d="M43.0953 27.9726C43.0953 27.9726 42.3717 28.7008 42.2442 28.9559L42.1175 29.2105L41.1439 28.7006C41.1439 28.7006 41.7728 28.0152 41.7922 28.027C41.8124 28.0383 43.0953 27.9726 43.0953 27.9726Z" fill="#6B7B3E"/>
<path d="M43.096 27.9725C42.3101 27.7383 41.7456 27.3635 41.7456 27.3635L41.1445 28.7005L43.0967 27.972L43.096 27.9725Z" fill="#4B5B19"/>
<path d="M42.4366 26.2126C42.4366 26.2126 41.9555 27.1201 41.9082 27.4012L41.8605 27.6815L40.7809 27.4768C40.7809 27.4768 41.1827 26.6381 41.2054 26.6431C41.2282 26.6481 42.4366 26.2126 42.4366 26.2126Z" fill="#6B7B3E"/>
<path d="M42.4363 26.2125C41.616 26.2165 40.9665 26.0224 40.9665 26.0224L40.7793 27.4764L42.4349 26.2123L42.4363 26.2125Z" fill="#4B5B19"/>
<path d="M41.6252 24.6756C41.6252 24.6756 41.3286 25.6586 41.3356 25.9426L41.3431 26.2273L40.2438 26.2338C40.2438 26.2338 40.4774 25.3335 40.4996 25.3344C40.5225 25.3347 41.6247 24.6748 41.6247 24.6748L41.6252 24.6756Z" fill="#6B7B3E"/>
<path d="M41.6243 24.6757C40.8202 24.837 40.1462 24.772 40.1462 24.772L40.2426 26.2353L41.6243 24.6757Z" fill="#4B5B19"/>
<path d="M40.9678 26.0403C40.9678 26.0403 40.6712 27.0233 40.6774 27.3078L40.6849 27.5925L39.5856 27.5991C39.5856 27.5991 39.8192 26.6988 39.8414 26.6996C39.8643 26.6999 40.9665 26.0401 40.9665 26.0401L40.9678 26.0403Z" fill="#6B7B3E"/>
<path d="M40.968 26.0405C40.1639 26.2017 39.49 26.1368 39.49 26.1368L39.5864 27.6L40.968 26.0405Z" fill="#4B5B19"/>
<path d="M41.1045 27.3958C41.1045 27.3958 40.8079 28.3788 40.8141 28.6633L40.8216 28.948L39.7223 28.9545C39.7223 28.9545 39.9559 28.0543 39.9781 28.0551C40.001 28.0554 41.1032 27.3955 41.1032 27.3955L41.1045 27.3958Z" fill="#6B7B3E"/>
<path d="M41.1047 27.3959C40.3006 27.5572 39.6267 27.4922 39.6267 27.4922L39.7231 28.9555L41.1047 27.3959Z" fill="#4B5B19"/>
<path d="M41.3506 28.5823C41.3506 28.5823 41.054 29.5653 41.0602 29.8498L41.0677 30.1345L39.9684 30.1411C39.9684 30.1411 40.202 29.2408 40.225 29.2411C40.2479 29.2414 41.3501 28.5815 41.3501 28.5815L41.3506 28.5823Z" fill="#6B7B3E"/>
<path d="M41.3508 28.5825C40.5467 28.7437 39.8728 28.6788 39.8728 28.6788L39.9692 30.142L41.3508 28.5825Z" fill="#4B5B19"/>
<path d="M40.3799 24.6428C40.3799 24.6428 40.0833 25.6258 40.0895 25.9103L40.097 26.195L38.9977 26.2016C38.9977 26.2016 39.2313 25.3013 39.2543 25.3016C39.2772 25.3019 40.3794 24.6421 40.3794 24.6421L40.3799 24.6428Z" fill="#6B7B3E"/>
<path d="M40.3801 24.643C39.576 24.8042 38.9021 24.7393 38.9021 24.7393L38.9985 26.2025L40.3801 24.643Z" fill="#4B5B19"/>
<path d="M39.5108 23.4671C39.5108 23.4671 39.2141 24.4501 39.2203 24.7346L39.2279 25.0193L38.1286 25.0258C38.1286 25.0258 38.3622 24.1255 38.3851 24.1258C38.408 24.1261 39.5102 23.4663 39.5102 23.4663L39.5108 23.4671Z" fill="#6B7B3E"/>
<path d="M39.511 23.4672C38.7069 23.6285 38.0329 23.5635 38.0329 23.5635L38.1293 25.0268L39.511 23.4672Z" fill="#4B5B19"/>
<path d="M40.8721 23.4682C40.8721 23.4682 40.3874 24.3736 40.3388 24.6545L40.2898 24.9346L39.2105 24.7251C39.2105 24.7251 39.6159 23.8886 39.6386 23.8935C39.6614 23.8985 40.8721 23.4682 40.8721 23.4682Z" fill="#6B7B3E"/>
<path d="M40.8725 23.4684C40.0522 23.469 39.404 23.2717 39.404 23.2717L39.2108 24.7253L40.8725 23.4684Z" fill="#4B5B19"/>
<path d="M39.8756 22.0368C39.8756 22.0368 39.6129 23.0296 39.6301 23.3134L39.6472 23.5973L38.5486 23.6432C38.5486 23.6432 38.7498 22.7354 38.7735 22.7352C38.7964 22.7355 39.8756 22.0368 39.8756 22.0368Z" fill="#6B7B3E"/>
<path d="M39.8756 22.0368C39.0783 22.2263 38.4019 22.1846 38.4019 22.1846L38.5499 23.6434L39.8756 22.0368Z" fill="#4B5B19"/>
<path d="M38.369 20.6985C38.369 20.6985 38.3662 21.7258 38.4549 21.9961L38.5436 22.2665L37.492 22.5884C37.492 22.5884 37.4572 21.6595 37.48 21.653C37.5021 21.6471 38.369 20.6985 38.369 20.6985Z" fill="#6B7B3E"/>
<path d="M38.3697 20.6986C37.6455 21.0839 36.981 21.2148 36.981 21.2148L37.4927 22.5884L38.3697 20.6986Z" fill="#4B5B19"/>
<path d="M37.2718 20.117C37.2718 20.117 37.1204 21.1329 37.1693 21.4134L37.2182 21.6938L36.1312 21.8602C36.1312 21.8602 36.2314 20.936 36.2543 20.9329C36.2772 20.9298 37.2718 20.117 37.2718 20.117Z" fill="#6B7B3E"/>
<path d="M37.2726 20.1169C36.5007 20.3938 35.8238 20.4263 35.8238 20.4263L36.132 21.8601L37.2726 20.1169Z" fill="#4B5B19"/>
<path d="M35.6863 19.3054C35.6863 19.3054 35.7736 20.3281 35.8854 20.5907L35.9975 20.852L34.9786 21.2652C34.9786 21.2652 34.8628 20.3427 34.8846 20.3346C34.9064 20.3266 35.6863 19.3054 35.6863 19.3054Z" fill="#6B7B3E"/>
<path d="M35.6846 19.3054C34.9972 19.7531 34.3469 19.9415 34.3469 19.9415L34.9777 21.2647L35.6854 19.3049L35.6846 19.3054Z" fill="#4B5B19"/>
<path d="M43.7563 40.7507C43.7563 40.7507 42.7362 40.8703 42.4782 40.9904L42.2201 41.1105L41.7752 40.1052C41.7752 40.1052 42.6938 39.9603 42.7026 39.9815C42.7114 40.0028 43.7563 40.7507 43.7563 40.7507Z" fill="#6B7B3E"/>
<path d="M43.7565 40.7505C43.2878 40.0774 43.0786 39.4332 43.0786 39.4332L41.7754 40.105L43.7565 40.7505Z" fill="#4B5B19"/>
<path d="M44.2249 38.9106C44.2249 38.9106 43.2596 39.2623 43.0367 39.4392L42.8133 39.6152L42.1484 38.7393C42.1484 38.7393 43.0085 38.3865 43.0219 38.4046C43.0352 38.424 44.2251 38.9093 44.2251 38.9093L44.2249 38.9106Z" fill="#6B7B3E"/>
<path d="M44.224 38.9103C43.613 38.3638 43.2609 37.7851 43.2609 37.7851L42.1481 38.7398L44.224 38.9103Z" fill="#4B5B19"/>
<path d="M44.5112 37.0079C44.5112 37.0079 43.6668 37.5922 43.4953 37.8193L43.3237 38.0464L42.4591 37.3679C42.4591 37.3679 43.2022 36.8083 43.2196 36.8238C43.2377 36.8387 44.5112 37.0079 44.5112 37.0079Z" fill="#6B7B3E"/>
<path d="M44.5104 37.0079C43.7807 36.6342 43.2934 36.1625 43.2934 36.1625L42.4583 37.3679L44.5104 37.0079Z" fill="#4B5B19"/>
<path d="M44.5833 35.5139C44.5833 35.5139 43.6407 35.9207 43.4276 36.1102L43.2145 36.2997L42.5 35.4644C42.5 35.4644 43.3384 35.0615 43.3524 35.0804C43.3667 35.0979 44.5823 35.5158 44.5823 35.5158L44.5833 35.5139Z" fill="#6B7B3E"/>
<path d="M44.5829 35.5141C43.9413 35.0043 43.5555 34.4463 43.5555 34.4463L42.4999 35.4632L44.5824 35.5133L44.5829 35.5141Z" fill="#4B5B19"/>
<path d="M43.3716 35.1648C43.3716 35.1648 42.429 35.5716 42.2159 35.7611L42.0036 35.9501L41.2891 35.1147C41.2891 35.1147 42.1275 34.7119 42.1415 34.7308C42.1557 34.7483 43.3713 35.1662 43.3713 35.1662L43.3716 35.1648Z" fill="#6B7B3E"/>
<path d="M43.372 35.165C42.7298 34.6544 42.3446 34.0972 42.3446 34.0972L41.289 35.1141L43.372 35.165Z" fill="#4B5B19"/>
<path d="M42.3704 34.0945C42.3704 34.0945 41.4278 34.5013 41.2147 34.6908L41.0016 34.8802L40.2871 34.0449C40.2871 34.0449 41.1255 33.642 41.1395 33.6609C41.1538 33.6785 42.3694 34.0963 42.3694 34.0963L42.3704 34.0945Z" fill="#6B7B3E"/>
<path d="M42.37 34.0946C41.7284 33.5848 41.3426 33.0269 41.3426 33.0269L40.287 34.0438L42.3695 34.0939L42.37 34.0946Z" fill="#4B5B19"/>
<path d="M43.7122 36.5051C43.7122 36.5051 42.7696 36.9119 42.5565 37.1014L42.3434 37.2909L41.6289 36.4556C41.6289 36.4556 42.4673 36.0527 42.4813 36.0716C42.4953 36.0905 43.7112 36.507 43.7112 36.507L43.7122 36.5051Z" fill="#6B7B3E"/>
<path d="M43.713 36.5053C43.0713 35.9955 42.6864 35.437 42.6864 35.437L41.6308 36.4539L43.7132 36.504L43.713 36.5053Z" fill="#4B5B19"/>
<path d="M43.3052 38.1355C43.3052 38.1355 42.3626 38.5423 42.1495 38.7318L41.9372 38.9208L41.2227 38.0854C41.2227 38.0854 42.0611 37.6826 42.0751 37.7015C42.0893 37.719 43.3049 38.1369 43.3049 38.1369L43.3052 38.1355Z" fill="#6B7B3E"/>
<path d="M43.3048 38.1357C42.6626 37.6251 42.2782 37.0674 42.2782 37.0674L41.2226 38.0843L43.3056 38.1352L43.3048 38.1357Z" fill="#4B5B19"/>
<path d="M43.0755 39.6467C43.0755 39.6467 42.1329 40.0535 41.9198 40.243L41.7067 40.4325L40.9922 39.5972C40.9922 39.5972 41.8306 39.1943 41.8446 39.2132C41.8589 39.2307 43.0745 39.6486 43.0745 39.6486L43.0755 39.6467Z" fill="#6B7B3E"/>
<path d="M43.0763 39.6469C42.4346 39.1371 42.0497 38.5786 42.0497 38.5786L40.994 39.5955L43.0766 39.6456L43.0763 39.6469Z" fill="#4B5B19"/>
<path d="M44.4458 33.8401C44.4458 33.8401 43.6223 34.4534 43.4591 34.6861L43.296 34.9189L42.408 34.2711C42.408 34.2711 43.131 33.6854 43.1491 33.7003C43.1667 33.7145 44.4466 33.8396 44.4466 33.8396L44.4458 33.8401Z" fill="#6B7B3E"/>
<path d="M44.4464 33.84C43.7045 33.4917 43.2009 33.0379 43.2009 33.0379L42.4086 34.271L44.4472 33.8395L44.4464 33.84Z" fill="#4B5B19"/>
<path d="M44.3542 32.2747C44.3542 32.2747 43.7126 33.0766 43.6134 33.3431L43.5141 33.6097L42.491 33.2074C42.491 33.2074 43.0428 32.4587 43.064 32.4681C43.0852 32.4776 44.3542 32.2747 44.3542 32.2747Z" fill="#6B7B3E"/>
<path d="M44.3528 32.2746C43.5467 32.1258 42.9453 31.8136 42.9453 31.8136L42.4909 33.2075L44.3541 32.2748L44.3528 32.2746Z" fill="#4B5B19"/>
<path d="M43.9268 31.09C43.9268 31.09 43.1765 31.7909 43.0393 32.04L42.9027 32.29L41.9487 31.744C41.9487 31.744 42.6022 31.0829 42.6221 31.0954C42.6415 31.1072 43.9268 31.09 43.9268 31.09Z" fill="#6B7B3E"/>
<path d="M43.9276 31.0899C43.1508 30.8256 42.6009 30.4306 42.6009 30.4306L41.9495 31.7439L43.9276 31.0899Z" fill="#4B5B19"/>
<path d="M43.3685 29.3645C43.3685 29.3645 42.7994 30.2194 42.725 30.494L42.6493 30.7684L41.5953 30.4576C41.5953 30.4576 42.0785 29.6635 42.1002 29.6703C42.1225 29.6779 43.3685 29.3645 43.3685 29.3645Z" fill="#6B7B3E"/>
<path d="M43.3685 29.3644C42.5524 29.2861 41.9257 29.0286 41.9257 29.0286L41.5953 30.4575L43.3685 29.3644Z" fill="#4B5B19"/>
<path d="M42.6251 42.4397C42.6251 42.4397 41.6114 42.2765 41.3305 42.3213L41.0495 42.3661L40.8956 41.2773C40.8956 41.2773 41.8191 41.3882 41.8209 41.4109C41.8232 41.4343 42.6254 42.4384 42.6254 42.4384L42.6251 42.4397Z" fill="#6B7B3E"/>
<path d="M42.6244 42.4399C42.3568 41.665 42.3318 40.9875 42.3318 40.9875L40.8945 41.2788L42.6244 42.4399Z" fill="#4B5B19"/>
<path d="M42.5924 29.6353C42.5924 29.6353 41.796 30.2835 41.6423 30.5234L41.4886 30.7634L40.5739 30.1531C40.5739 30.1531 41.2714 29.5382 41.2905 29.5513C41.3097 29.5644 42.5924 29.6353 42.5924 29.6353Z" fill="#6B7B3E"/>
<path d="M42.5913 29.6355C41.8346 29.3189 41.3128 28.8866 41.3128 28.8866L40.5736 30.1528L42.5913 29.6355Z" fill="#4B5B19"/>
<path d="M42.1523 27.8761C42.1523 27.8761 41.5267 28.6899 41.4329 28.9594L41.3387 29.2283L40.3077 28.8461C40.3077 28.8461 40.8439 28.0864 40.8659 28.0953C40.8873 28.1034 42.1515 27.8766 42.1515 27.8766L42.1523 27.8761Z" fill="#6B7B3E"/>
<path d="M42.1521 27.8763C41.343 27.7431 40.7352 27.4433 40.7352 27.4433L40.3083 28.8458L42.1521 27.8763Z" fill="#4B5B19"/>
<path d="M41.8949 42.4121C41.8949 42.4121 40.8678 42.4229 40.5988 42.5152L40.3298 42.6075L39.9941 41.5607C39.9941 41.5607 40.9226 41.5137 40.9293 41.5352C40.9353 41.5573 41.8957 42.4116 41.8957 42.4116L41.8949 42.4121Z" fill="#6B7B3E"/>
<path d="M41.8955 42.4117C41.5003 41.6931 41.3611 41.0297 41.3611 41.0297L39.9941 41.5596L41.8957 42.4104L41.8955 42.4117Z" fill="#4B5B19"/>
<path d="M42.5552 40.632C42.5552 40.632 41.5589 40.8798 41.3178 41.0315L41.0767 41.1833L40.5087 40.2425C40.5087 40.2425 41.4012 39.9824 41.4123 40.0021C41.4234 40.0218 42.5552 40.632 42.5552 40.632Z" fill="#6B7B3E"/>
<path d="M42.5547 40.632C42.004 40.0238 41.7159 39.4107 41.7159 39.4107L40.5081 40.2425L42.5547 40.632Z" fill="#4B5B19"/>
<path d="M43.0422 38.7708C43.0422 38.7708 42.1403 39.2624 41.9462 39.4697L41.7512 39.6775L40.9629 38.9106C40.9629 38.9106 41.7607 38.4331 41.7765 38.4496C41.7923 38.4662 43.0417 38.77 43.0417 38.77L43.0422 38.7708Z" fill="#6B7B3E"/>
<path d="M43.0414 38.7707C42.3558 38.3215 41.9209 37.8015 41.9209 37.8015L40.9626 38.9113L43.0414 38.7707Z" fill="#4B5B19"/>
<path d="M43.3001 37.4592C43.3001 37.4592 42.32 37.7642 42.0879 37.9291L41.8563 38.0948L41.2344 37.1885C41.2344 37.1885 42.1102 36.8772 42.1234 36.8966C42.1366 36.916 43.3001 37.4592 43.3001 37.4592Z" fill="#6B7B3E"/>
<path d="M43.2992 37.4591C42.7152 36.8838 42.3914 36.2883 42.3914 36.2883L41.2335 37.1884L43.2992 37.4591Z" fill="#4B5B19"/>
<path d="M43.3399 35.7801C43.3399 35.7801 42.4563 36.3036 42.269 36.5176L42.0822 36.7323L41.2676 35.9937C41.2676 35.9937 42.0484 35.4879 42.065 35.5039C42.0816 35.5199 43.3407 35.7796 43.3407 35.7796L43.3399 35.7801Z" fill="#6B7B3E"/>
<path d="M43.3403 35.7799C42.6393 35.3549 42.1866 34.8505 42.1866 34.8505L41.268 35.9934L43.3403 35.7799Z" fill="#4B5B19"/>
<path d="M43.3866 34.047C43.3866 34.047 42.6635 34.776 42.5373 35.0313L42.4106 35.2858L41.4359 34.7778C41.4359 34.7778 42.0631 34.0914 42.0832 34.1027C42.1034 34.114 43.3866 34.047 43.3866 34.047Z" fill="#6B7B3E"/>
<path d="M43.3872 34.0469C42.6013 33.8126 42.0358 33.4397 42.0358 33.4397L41.436 34.7769L43.3872 34.0469Z" fill="#4B5B19"/>
<path d="M43.0874 32.8239C43.0874 32.8239 42.2665 33.4411 42.1045 33.6754L41.9419 33.9089L41.051 33.2653C41.051 33.2653 41.7711 32.677 41.7895 32.6907C41.8079 32.7043 43.0874 32.8239 43.0874 32.8239Z" fill="#6B7B3E"/>
<path d="M43.0874 32.8238C42.3434 32.4792 41.8381 32.0277 41.8381 32.0277L41.0509 33.2652L43.0866 32.8243L43.0874 32.8238Z" fill="#4B5B19"/>
<path d="M42.7147 31.0484C42.7147 31.0484 42.0592 31.8382 41.9547 32.1038L41.8511 32.3688L40.8356 31.9476C40.8356 31.9476 41.4009 31.209 41.4214 31.219C41.4426 31.2284 42.7153 31.0492 42.7153 31.0492L42.7147 31.0484Z" fill="#6B7B3E"/>
<path d="M42.7153 31.0482C41.9114 30.8843 41.3159 30.5624 41.3159 30.5624L40.8362 31.9475L42.7153 31.0482Z" fill="#4B5B19"/>
<path d="M40.5919 43.9718C40.5919 43.9718 39.6011 43.7021 39.317 43.7172L39.0328 43.7323L38.995 42.6338C38.995 42.6338 39.9016 42.8415 39.9013 42.8645C39.901 42.8874 40.5914 43.971 40.5914 43.971L40.5919 43.9718Z" fill="#6B7B3E"/>
<path d="M40.591 43.9718C40.4072 43.1729 40.4536 42.4967 40.4536 42.4967L38.9941 42.6338L40.591 43.9718Z" fill="#4B5B19"/>
<path d="M40.6218 27.3248C40.6218 27.3248 39.9044 28.0589 39.7788 28.315L39.6539 28.5706L38.6759 28.0693C38.6759 28.0693 39.2986 27.3781 39.3188 27.3893C39.3389 27.4006 40.6212 27.324 40.6212 27.324L40.6218 27.3248Z" fill="#6B7B3E"/>
<path d="M40.6215 27.3248C39.8339 27.0963 39.2655 26.7275 39.2655 26.7275L38.6757 28.0694L40.6215 27.3248Z" fill="#4B5B19"/>
<path d="M39.9838 25.6268C39.9838 25.6268 39.4558 26.5071 39.3929 26.7852L39.3307 27.0628L38.2634 26.8009C38.2634 26.8009 38.7102 25.985 38.7319 25.9919C38.7544 25.9981 39.9843 25.6276 39.9843 25.6276L39.9838 25.6268Z" fill="#6B7B3E"/>
<path d="M39.9845 25.627C39.1659 25.5867 38.5275 25.3588 38.5275 25.3588L38.2629 26.8008L39.985 25.6277L39.9845 25.627Z" fill="#4B5B19"/>
<path d="M41.3905 40.0981C41.3905 40.0981 40.3716 40.226 40.1144 40.349L39.8579 40.4714L39.4041 39.4699C39.4041 39.4699 40.3216 39.3166 40.3304 39.3379C40.3393 39.3592 41.3905 40.0981 41.3905 40.0981Z" fill="#6B7B3E"/>
<path d="M41.3912 40.0978C40.9163 39.4289 40.7022 38.7859 40.7022 38.7859L39.4043 39.4688L41.3907 40.097L41.3912 40.0978Z" fill="#4B5B19"/>
<path d="M41.8415 38.2544C41.8415 38.2544 40.8794 38.6142 40.6576 38.7926L40.4358 38.971L39.7637 38.1011C39.7637 38.1011 40.6205 37.7402 40.6345 37.7591C40.6477 37.7785 41.8415 38.2544 41.8415 38.2544Z" fill="#6B7B3E"/>
<path d="M41.8422 38.2543C41.226 37.7135 40.8687 37.1373 40.8687 37.1373L39.7644 38.101L41.8422 38.2543Z" fill="#4B5B19"/>
<path d="M42.1128 36.3488C42.1128 36.3488 41.2732 36.9401 41.104 37.169L40.9348 37.3979L40.0648 36.7265C40.0648 36.7265 40.8029 36.1612 40.8205 36.1754C40.8386 36.1903 42.1134 36.3496 42.1134 36.3496L42.1128 36.3488Z" fill="#6B7B3E"/>
<path d="M42.1128 36.349C41.38 35.9808 40.8891 35.5138 40.8891 35.5138L40.0642 36.7259L42.1128 36.349Z" fill="#4B5B19"/>
<path d="M42.2184 35.0173C42.2184 35.0173 41.279 35.4321 41.0677 35.6226L40.8565 35.8131L40.1348 34.9839C40.1348 34.9839 40.9697 34.5743 40.9845 34.5926C40.9988 34.6102 42.2184 35.0173 42.2184 35.0173Z" fill="#6B7B3E"/>
<path d="M42.2188 35.0172C41.5727 34.5126 41.1829 33.9586 41.1829 33.9586L40.1357 34.9845L42.2188 35.0172Z" fill="#4B5B19"/>
<path d="M42.0681 33.344C42.0681 33.344 41.2498 33.9651 41.0885 34.1988L40.9269 34.4339L40.0335 33.7932C40.0335 33.7932 40.7515 33.2018 40.7691 33.216C40.7867 33.2302 42.0673 33.3445 42.0673 33.3445L42.0681 33.344Z" fill="#6B7B3E"/>
<path d="M42.0672 33.3441C41.3219 33.0026 40.8142 32.5527 40.8142 32.5527L40.0326 33.7933L42.0672 33.3441Z" fill="#4B5B19"/>
<path d="M41.9152 31.6166C41.9152 31.6166 41.2806 32.4239 41.1832 32.6915L41.0858 32.959L40.0597 32.5656C40.0597 32.5656 40.6048 31.8123 40.626 31.8218C40.6472 31.8312 41.9144 31.6171 41.9144 31.6171L41.9152 31.6166Z" fill="#6B7B3E"/>
<path d="M41.9153 31.6164C41.108 31.4741 40.5035 31.1674 40.5035 31.1674L40.0606 32.5649L41.9153 31.6164Z" fill="#4B5B19"/>
<path d="M41.4793 30.4356C41.4793 30.4356 40.7346 31.1429 40.5997 31.3939L40.4649 31.6449L39.5061 31.1067C39.5061 31.1067 40.1545 30.44 40.1739 30.4517C40.1933 30.4635 41.4785 30.4361 41.4785 30.4361L41.4793 30.4356Z" fill="#6B7B3E"/>
<path d="M41.4791 30.4356C40.701 30.1779 40.147 29.7868 40.147 29.7868L39.5067 31.1062L41.4791 30.4356Z" fill="#4B5B19"/>
<path d="M40.9065 28.7149C40.9065 28.7149 40.3452 29.5746 40.2721 29.8495L40.199 30.1243L39.142 29.8225C39.142 29.8225 39.6187 29.0237 39.6409 29.0313C39.6626 29.0381 40.9065 28.7149 40.9065 28.7149Z" fill="#6B7B3E"/>
<path d="M40.9056 28.7148C40.0887 28.6437 39.4598 28.3913 39.4598 28.3913L39.141 29.8224L40.9056 28.7148Z" fill="#4B5B19"/>
<path d="M40.2744 41.7959C40.2744 41.7959 39.2597 41.6414 38.9783 41.6887L38.6981 41.7364L38.5351 40.6493C38.5351 40.6493 39.4593 40.7529 39.4619 40.775C39.465 40.7979 40.2744 41.7959 40.2744 41.7959Z" fill="#6B7B3E"/>
<path d="M40.2753 41.796C40.0012 41.0233 39.97 40.3466 39.97 40.3466L38.5352 40.6499L40.2745 41.7965L40.2753 41.796Z" fill="#4B5B19"/>
<path d="M39.7487 26.7691C39.7487 26.7691 39.0314 27.5032 38.9057 27.7593L38.7809 28.0149L37.8029 27.5137C37.8029 27.5137 38.4255 26.8224 38.4457 26.8337C38.4659 26.8449 39.7482 26.7683 39.7482 26.7683L39.7487 26.7691Z" fill="#6B7B3E"/>
<path d="M39.7485 26.7691C38.9608 26.5406 38.3925 26.1718 38.3925 26.1718L37.8026 27.5137L39.7485 26.7691Z" fill="#4B5B19"/>
<path d="M39.1107 25.0716C39.1107 25.0716 38.5827 25.9519 38.5198 26.23L38.4577 26.5077L37.3904 26.2457C37.3904 26.2457 37.8372 25.4299 37.8589 25.4367C37.8814 25.443 39.1112 25.0724 39.1112 25.0724L39.1107 25.0716Z" fill="#6B7B3E"/>
<path d="M39.1115 25.0718C38.2928 25.0315 37.6545 24.8036 37.6545 24.8036L37.3898 26.2457L39.112 25.0726L39.1115 25.0718Z" fill="#4B5B19"/>
<path d="M40.5175 39.5415C40.5175 39.5415 39.4986 39.6694 39.2413 39.7924L38.9848 39.9148L38.5311 38.9132C38.5311 38.9132 39.4486 38.76 39.4574 38.7813C39.4662 38.8025 40.5175 39.5415 40.5175 39.5415Z" fill="#6B7B3E"/>
<path d="M40.5182 39.5411C40.0432 38.8723 39.8291 38.2292 39.8291 38.2292L38.5312 38.9121L40.5176 39.5403L40.5182 39.5411Z" fill="#4B5B19"/>
<path d="M40.9684 37.6983C40.9684 37.6983 40.0063 38.0581 39.7845 38.2364L39.5627 38.4148L38.8906 37.5449C38.8906 37.5449 39.7475 37.1841 39.7614 37.203C39.7747 37.2224 40.9684 37.6983 40.9684 37.6983Z" fill="#6B7B3E"/>
<path d="M40.9692 37.6981C40.353 37.1573 39.9957 36.5811 39.9957 36.5811L38.8913 37.5448L40.9692 37.6981Z" fill="#4B5B19"/>
<path d="M41.2398 35.7926C41.2398 35.7926 40.4001 36.3839 40.2309 36.6128L40.0618 36.8418L39.1918 36.1703C39.1918 36.1703 39.9298 35.6051 39.9474 35.6192C39.9655 35.6342 41.2403 35.7934 41.2403 35.7934L41.2398 35.7926Z" fill="#6B7B3E"/>
<path d="M41.2397 35.7928C40.507 35.4246 40.0161 34.9576 40.0161 34.9576L39.1912 36.1697L41.2397 35.7928Z" fill="#4B5B19"/>
<path d="M41.3454 34.4616C41.3454 34.4616 40.406 34.8765 40.1947 35.067L39.9835 35.2575L39.2617 34.4282C39.2617 34.4282 40.0967 34.0186 40.1115 34.037C40.1257 34.0545 41.3454 34.4616 41.3454 34.4616Z" fill="#6B7B3E"/>
<path d="M41.3458 34.4615C40.6997 33.9569 40.3098 33.4029 40.3098 33.4029L39.2626 34.4289L41.3458 34.4615Z" fill="#4B5B19"/>
<path d="M41.195 32.7883C41.195 32.7883 40.3767 33.4094 40.2154 33.6432L40.0539 33.8783L39.1605 33.2376C39.1605 33.2376 39.8785 32.6462 39.8961 32.6603C39.9144 32.674 41.1942 32.7889 41.1942 32.7889L41.195 32.7883Z" fill="#6B7B3E"/>
<path d="M41.1941 32.7884C40.4489 32.447 39.9412 31.997 39.9412 31.997L39.1596 33.2376L41.1941 32.7884Z" fill="#4B5B19"/>
<path d="M40.3863 36.7804C40.3863 36.7804 39.5466 37.3717 39.3774 37.6006L39.2083 37.8295L38.3383 37.1581C38.3383 37.1581 39.0763 36.5928 39.0939 36.607C39.112 36.6219 40.3868 36.7812 40.3868 36.7812L40.3863 36.7804Z" fill="#6B7B3E"/>
<path d="M40.3862 36.7806C39.6535 36.4124 39.1626 35.9454 39.1626 35.9454L38.3377 37.1575L40.3862 36.7806Z" fill="#4B5B19"/>
<path d="M39.2593 37.9719C39.2593 37.9719 38.4196 38.5631 38.2505 38.792L38.0813 39.021L37.2113 38.3495C37.2113 38.3495 37.9493 37.7843 37.9669 37.7984C37.9851 37.8134 39.2598 37.9726 39.2598 37.9726L39.2593 37.9719Z" fill="#6B7B3E"/>
<path d="M39.2593 37.972C38.5265 37.6038 38.0356 37.1368 38.0356 37.1368L37.2107 38.3489L39.2593 37.972Z" fill="#4B5B19"/>
<path d="M40.4899 35.4489C40.4899 35.4489 39.5505 35.8638 39.3392 36.0543L39.128 36.2448L38.4062 35.4155C38.4062 35.4155 39.2412 35.0059 39.256 35.0243C39.2702 35.0418 40.4899 35.4489 40.4899 35.4489Z" fill="#6B7B3E"/>
<path d="M40.4903 35.4488C39.8442 34.9442 39.4544 34.3902 39.4544 34.3902L38.4072 35.4162L40.4903 35.4488Z" fill="#4B5B19"/>
<path d="M40.3415 33.7766C40.3415 33.7766 39.5232 34.3977 39.3619 34.6315L39.2004 34.8665L38.307 34.2258C38.307 34.2258 39.0249 33.6345 39.0425 33.6486C39.0601 33.6628 40.3407 33.7772 40.3407 33.7772L40.3415 33.7766Z" fill="#6B7B3E"/>
<path d="M40.3406 33.7767C39.5953 33.4352 39.0877 32.9853 39.0877 32.9853L38.3055 34.2251L40.3401 33.7759L40.3406 33.7767Z" fill="#4B5B19"/>
<path d="M41.0407 31.0612C41.0407 31.0612 40.4062 31.8686 40.3088 32.1361L40.2114 32.4037L39.1847 32.0095C39.1847 32.0095 39.7298 31.2562 39.751 31.2656C39.7722 31.275 41.0394 31.061 41.0394 31.061L41.0407 31.0612Z" fill="#6B7B3E"/>
<path d="M41.0403 31.0612C40.233 30.9189 39.6285 30.6123 39.6285 30.6123L39.1856 32.0097L41.0403 31.0612Z" fill="#4B5B19"/>
<path d="M40.6054 29.8805C40.6054 29.8805 39.8607 30.5878 39.7267 30.8383L39.5919 31.0892L38.6331 30.5511C38.6331 30.5511 39.2815 29.8843 39.3009 29.8961C39.3203 29.9079 40.6054 29.8805 40.6054 29.8805Z" fill="#6B7B3E"/>
<path d="M40.606 29.8805C39.8279 29.6227 39.274 29.2316 39.274 29.2316L38.6336 30.5511L40.606 29.8805Z" fill="#4B5B19"/>
<path d="M40.0335 28.1597C40.0335 28.1597 39.4721 29.0195 39.3991 29.2943L39.326 29.5692L38.2689 29.2673C38.2689 29.2673 38.7456 28.4686 38.7679 28.4762C38.7896 28.483 40.0335 28.1597 40.0335 28.1597Z" fill="#6B7B3E"/>
<path d="M40.0325 28.1596C39.2157 28.0886 38.5867 27.8361 38.5867 27.8361L38.268 29.2672L40.0325 28.1596Z" fill="#4B5B19"/>
<path d="M39.4013 41.2412C39.4013 41.2412 38.3867 41.0867 38.1052 41.134L37.825 41.1817L37.662 40.0946C37.662 40.0946 38.5863 40.1982 38.5888 40.2203C38.5919 40.2432 39.4013 41.2412 39.4013 41.2412Z" fill="#6B7B3E"/>
<path d="M39.4014 41.2414C39.1274 40.4686 39.097 39.7914 39.097 39.7914L37.6621 40.0947L39.4014 41.2414Z" fill="#4B5B19"/>
<path d="M31.053 48.7638C31.053 48.7638 30.5088 47.8932 30.2904 47.7111L30.0713 47.5296L30.7903 46.6977C30.7903 46.6977 31.3139 47.4664 31.2987 47.4825C31.2827 47.499 31.0543 48.7641 31.0543 48.7641L31.053 48.7638Z" fill="#6B7B3E"/>
<path d="M31.0532 48.7639C31.4612 48.0529 31.9542 47.5886 31.9542 47.5886L30.7897 46.6983L31.0529 48.7652L31.0532 48.7639Z" fill="#4B5B19"/>
<path d="M32.8506 48.8133C32.8506 48.8133 32.1201 48.0912 31.8647 47.965L31.6094 47.8388L32.1169 46.8634C32.1169 46.8634 32.8041 47.49 32.7928 47.5102C32.7816 47.5303 32.8506 48.8133 32.8506 48.8133Z" fill="#6B7B3E"/>
<path d="M32.8507 48.8134C33.0837 48.0273 33.4561 47.461 33.4561 47.461L32.1178 46.863L32.8515 48.8129L32.8507 48.8134Z" fill="#4B5B19"/>
<path d="M34.4735 48.5823C34.4735 48.5823 33.5845 48.0682 33.3053 48.0105L33.027 47.9523L33.2709 46.8802C33.2709 46.8802 34.0942 47.3129 34.0879 47.3354C34.0816 47.3579 34.473 48.5815 34.473 48.5815L34.4735 48.5823Z" fill="#6B7B3E"/>
<path d="M34.4743 48.5821C34.5006 47.7629 34.7182 47.1212 34.7182 47.1212L33.2715 46.8813L34.4736 48.5826L34.4743 48.5821Z" fill="#4B5B19"/>
<path d="M35.7484 48.4747C35.7484 48.4747 34.8533 47.9716 34.5736 47.9165L34.294 47.8615L34.5256 46.7864C34.5256 46.7864 35.3535 47.2091 35.3485 47.2318C35.343 47.2537 35.7479 48.4739 35.7479 48.4739L35.7484 48.4747Z" fill="#6B7B3E"/>
<path d="M35.7477 48.4747C35.7645 47.655 35.9746 47.0105 35.9746 47.0105L34.5254 46.7871L35.7477 48.4747Z" fill="#4B5B19"/>
<path d="M38.3207 47.1055C38.3207 47.1055 37.4141 46.6239 37.1332 46.5753L36.8529 46.5276L37.0589 45.4483C37.0589 45.4483 37.8965 45.8519 37.8915 45.8746C37.8866 45.8974 38.3205 47.1068 38.3205 47.1068L38.3207 47.1055Z" fill="#6B7B3E"/>
<path d="M38.3221 47.1053C38.3194 46.2853 38.5149 45.636 38.5149 45.636L37.0605 45.4468L38.3221 47.1053Z" fill="#4B5B19"/>
<path d="M37.2836 47.9273C37.2836 47.9273 36.377 47.4456 36.0961 47.3971L35.8158 47.3494L36.0226 46.2695C36.0226 46.2695 36.8602 46.6732 36.8552 46.6959C36.8502 46.7186 37.2842 47.928 37.2842 47.928L37.2836 47.9273Z" fill="#6B7B3E"/>
<path d="M37.285 47.9271C37.2823 47.107 37.4778 46.4578 37.4778 46.4578L36.0234 46.2686L37.285 47.9271Z" fill="#4B5B19"/>
<path d="M39.715 45.9809C39.715 45.9809 38.7159 45.7441 38.4322 45.768L38.1489 45.7927L38.0757 44.6956C38.0757 44.6956 38.9884 44.8741 38.9894 44.8973C38.9905 44.9205 39.7155 45.9816 39.7155 45.9816L39.715 45.9809Z" fill="#6B7B3E"/>
<path d="M39.7155 45.981C39.5062 45.1881 39.5304 44.5111 39.5304 44.5111L38.0762 44.6958L39.7155 45.981Z" fill="#4B5B19"/>
<path d="M40.7353 44.8213C40.7353 44.8213 39.7207 44.6668 39.4392 44.7141L39.159 44.7617L38.996 43.6747C38.996 43.6747 39.9203 43.7783 39.9228 43.8004C39.9259 43.8233 40.7353 44.8213 40.7353 44.8213Z" fill="#6B7B3E"/>
<path d="M40.7354 44.8214C40.4614 44.0487 40.4309 43.3715 40.4309 43.3715L38.9961 43.6748L40.7354 44.8214Z" fill="#4B5B19"/>
<path d="M41.7041 43.7371C41.7041 43.7371 40.6877 43.5883 40.4078 43.638L40.1274 43.6869L39.9581 42.6007C39.9581 42.6007 40.8829 42.6983 40.886 42.7212C40.889 42.7441 41.7049 43.7366 41.7049 43.7366L41.7041 43.7371Z" fill="#6B7B3E"/>
<path d="M41.705 43.737C41.4266 42.9661 41.3914 42.2887 41.3914 42.2887L39.959 42.6006L41.705 43.737Z" fill="#4B5B19"/>
<path d="M29.1532 48.2959C29.1532 48.2959 28.9209 47.2958 28.7723 47.0526L28.6237 46.8094L29.5727 46.255C29.5727 46.255 29.8198 47.1518 29.7988 47.1627C29.7786 47.1731 29.1519 48.2956 29.1519 48.2956L29.1532 48.2959Z" fill="#6B7B3E"/>
<path d="M29.1526 48.296C29.7689 47.7557 30.386 47.4751 30.386 47.4751L29.5728 46.2546L29.1528 48.2947L29.1526 48.296Z" fill="#4B5B19"/>
<path d="M32.8574 17.6802L33.8809 17.9128L33.8929 17.4397L32.8574 17.6802Z" fill="#261C02"/>
<path d="M32.4673 15.4173C32.4673 15.4173 32.9442 15.6517 33.429 15.6409C33.9143 15.6309 33.8738 15.4345 33.8738 15.4345L33.8135 15.1039C33.8135 15.1039 33.6104 15.3082 33.3088 15.3693C33.0063 15.4309 32.4668 15.4165 32.4668 15.4165L32.4673 15.4173Z" fill="#261C02"/>
<path d="M32.8384 17.1062C32.8384 17.1062 33.3153 17.3407 33.8001 17.3299C34.2855 17.3198 34.2449 17.1235 34.2449 17.1235L34.1846 16.7929C34.1846 16.7929 33.9815 16.9971 33.6799 17.0582C33.3774 17.1199 32.8379 17.1055 32.8379 17.1055L32.8384 17.1062Z" fill="#261C02"/>
<path d="M37.0747 46.8111C37.0747 46.8111 36.168 46.3294 35.8871 46.2809L35.6068 46.2331L35.8128 45.1539C35.8128 45.1539 36.6504 45.5575 36.6455 45.5802C36.6405 45.6029 37.0744 46.8124 37.0744 46.8124L37.0747 46.8111Z" fill="#6B7B3E"/>
<path d="M37.076 46.8108C37.0733 45.9908 37.2688 45.3416 37.2688 45.3416L35.8145 45.1523L37.076 46.8108Z" fill="#4B5B19"/>
<path d="M35.938 47.3355C35.938 47.3355 35.0313 46.8538 34.7504 46.8053L34.4701 46.7576L34.6761 45.6783C34.6761 45.6783 35.5137 46.0819 35.5087 46.1046C35.5038 46.1273 35.9377 47.3368 35.9377 47.3368L35.938 47.3355Z" fill="#6B7B3E"/>
<path d="M35.9393 47.3352C35.9366 46.5152 36.1321 45.866 36.1321 45.866L34.6777 45.6768L35.9388 47.3345L35.9393 47.3352Z" fill="#4B5B19"/>
<path d="M34.6196 47.5933C34.6196 47.5933 33.7129 47.1117 33.432 47.0631L33.1517 47.0154L33.3577 45.9361C33.3577 45.9361 34.1954 46.3397 34.1904 46.3624C34.1854 46.3851 34.6193 47.5946 34.6193 47.5946L34.6196 47.5933Z" fill="#6B7B3E"/>
<path d="M34.621 47.5931C34.6182 46.7731 34.8137 46.1238 34.8137 46.1238L33.3594 45.9346L34.621 47.5931Z" fill="#4B5B19"/>
<path d="M33.3325 47.751C33.3325 47.751 32.4258 47.2694 32.1449 47.2208L31.8646 47.1731L32.0706 46.0938C32.0706 46.0938 32.9083 46.4974 32.9033 46.5201C32.8983 46.5429 33.3322 47.7523 33.3322 47.7523L33.3325 47.751Z" fill="#6B7B3E"/>
<path d="M33.3338 47.7508C33.3311 46.9308 33.5266 46.2815 33.5266 46.2815L32.0723 46.0923L33.3338 47.7508Z" fill="#4B5B19"/>
<path d="M31.7075 47.7533C31.7075 47.7533 31.1802 46.8723 30.9647 46.6861L30.7491 46.4998L31.4836 45.6824C31.4836 45.6824 31.9925 46.4611 31.9765 46.4777C31.9605 46.4942 31.7068 47.7538 31.7068 47.7538L31.7075 47.7533Z" fill="#6B7B3E"/>
<path d="M31.7084 47.7531C32.1297 47.05 32.6325 46.595 32.6325 46.595L31.4852 45.6817L31.7084 47.7531Z" fill="#4B5B19"/>
<path d="M39.2459 39.7567C39.2459 39.7567 38.2356 39.939 37.9853 40.0754L37.7357 40.2113L37.229 39.2356C37.229 39.2356 38.1367 39.0345 38.147 39.0547C38.1566 39.0754 39.2464 39.7574 39.2464 39.7574L39.2459 39.7567Z" fill="#6B7B3E"/>
<path d="M39.2454 39.7564C38.7358 39.1135 38.4874 38.4835 38.4874 38.4835L37.2285 39.2354L39.2454 39.7564Z" fill="#4B5B19"/>
<path d="M39.0928 36.3898C39.0928 36.3898 38.18 36.8604 37.9811 37.064L37.7817 37.2669L37.0117 36.4819C37.0117 36.4819 37.8209 36.0228 37.8359 36.0399C37.8517 36.0564 39.0923 36.389 39.0923 36.389L39.0928 36.3898Z" fill="#6B7B3E"/>
<path d="M39.0924 36.39C38.4165 35.9251 37.9943 35.3954 37.9943 35.3954L37.0105 36.4827L39.0924 36.39Z" fill="#4B5B19"/>
<path d="M39.1475 33.4142C39.1475 33.4142 38.2347 33.8848 38.0358 34.0885L37.8364 34.2914L37.0664 33.5063C37.0664 33.5063 37.8756 33.0472 37.8906 33.0643C37.9064 33.0808 39.1477 33.4129 39.1477 33.4129L39.1475 33.4142Z" fill="#6B7B3E"/>
<path d="M39.1471 33.414C38.4712 32.9491 38.049 32.4193 38.049 32.4193L37.0652 33.5066L39.1471 33.414Z" fill="#4B5B19"/>
<path d="M39.1436 31.4742C39.1436 31.4742 38.2308 31.9448 38.0319 32.1485L37.8325 32.3514L37.0625 31.5664C37.0625 31.5664 37.8717 31.1073 37.8867 31.1243C37.9025 31.1408 39.1431 31.4735 39.1431 31.4735L39.1436 31.4742Z" fill="#6B7B3E"/>
<path d="M39.1432 31.474C38.4673 31.0091 38.0451 30.4794 38.0451 30.4794L37.0613 31.5667L39.1432 31.474Z" fill="#4B5B19"/>
<path d="M39.5225 32.6369C39.5225 32.6369 38.6097 33.1074 38.4108 33.3111L38.2114 33.514L37.4414 32.729C37.4414 32.729 38.2506 32.2699 38.2656 32.2869C38.2806 32.304 39.522 32.6361 39.522 32.6361L39.5225 32.6369Z" fill="#6B7B3E"/>
<path d="M39.5221 32.6366C38.8462 32.1717 38.424 31.642 38.424 31.642L37.4402 32.7293L39.5221 32.6366Z" fill="#4B5B19"/>
<path d="M39.1846 29.9801C39.1846 29.9801 38.2718 30.4507 38.0729 30.6544L37.8735 30.8573L37.1035 30.0723C37.1035 30.0723 37.9127 29.6131 37.9277 29.6302C37.9435 29.6467 39.1841 29.9793 39.1841 29.9793L39.1846 29.9801Z" fill="#6B7B3E"/>
<path d="M39.1842 29.9799C38.5083 29.515 38.0861 28.9853 38.0861 28.9853L37.1023 30.0726L39.1842 29.9799Z" fill="#4B5B19"/>
<path d="M39.0909 28.4796C39.0909 28.4796 38.1781 28.9502 37.9792 29.1539L37.7798 29.3568L37.0098 28.5718C37.0098 28.5718 37.819 28.1126 37.834 28.1297C37.849 28.1467 39.0903 28.4788 39.0903 28.4788L39.0909 28.4796Z" fill="#6B7B3E"/>
<path d="M39.0904 28.4794C38.4146 28.0145 37.9923 27.4848 37.9923 27.4848L37.0086 28.5721L39.0904 28.4794Z" fill="#4B5B19"/>
<path d="M37.9217 41.0452C37.9217 41.0452 36.9114 41.2275 36.661 41.364L36.4115 41.4999L35.9048 40.5241C35.9048 40.5241 36.8125 40.323 36.8228 40.3433C36.8324 40.364 37.9222 41.046 37.9222 41.046L37.9217 41.0452Z" fill="#6B7B3E"/>
<path d="M37.9211 41.045C37.4121 40.4028 37.1632 39.7721 37.1632 39.7721L35.9043 40.5239L37.9211 41.045Z" fill="#4B5B19"/>
<path d="M35.6446 44.5181C35.6446 44.5181 34.6849 44.1522 34.4007 44.1389L34.1166 44.1256L34.1879 43.0289C34.1879 43.0289 35.0696 43.3252 35.0672 43.3484C35.0648 43.3716 35.6453 44.5176 35.6453 44.5176L35.6446 44.5181Z" fill="#6B7B3E"/>
<path d="M35.6441 44.5181C35.5401 43.7045 35.6533 43.0363 35.6533 43.0363L34.1875 43.0288L35.6449 44.5175L35.6441 44.5181Z" fill="#4B5B19"/>
<path d="M33.6055 46.4932C33.6055 46.4932 32.6458 46.1273 32.3616 46.114L32.0775 46.1007L32.1489 45.004C32.1489 45.004 33.0305 45.3003 33.0281 45.3235C33.0258 45.3467 33.6063 46.4927 33.6063 46.4927L33.6055 46.4932Z" fill="#6B7B3E"/>
<path d="M33.6051 46.4931C33.5011 45.6796 33.6143 45.0114 33.6143 45.0114L32.1484 45.0039L33.6051 46.4931Z" fill="#4B5B19"/>
<path d="M37.2244 42.4061C37.2244 42.4061 36.2141 42.5884 35.9638 42.7248L35.7142 42.8607L35.2075 41.885C35.2075 41.885 36.1152 41.6839 36.1256 41.7041C36.1352 41.7248 37.2249 42.4069 37.2249 42.4069L37.2244 42.4061Z" fill="#6B7B3E"/>
<path d="M37.2239 42.4059C36.7148 41.7637 36.4659 41.133 36.4659 41.133L35.207 41.8848L37.2239 42.4059Z" fill="#4B5B19"/>
<path d="M36.5799 43.4686C36.5799 43.4686 35.5696 43.6509 35.3192 43.7873L35.0697 43.9232L34.563 42.9475C34.563 42.9475 35.4714 42.7458 35.481 42.7666C35.4906 42.7873 36.5804 43.4693 36.5804 43.4693L36.5799 43.4686Z" fill="#6B7B3E"/>
<path d="M36.5799 43.4682C36.0708 42.826 35.8219 42.1952 35.8219 42.1952L34.5625 42.9463L36.5793 43.4674L36.5799 43.4682Z" fill="#4B5B19"/>
<path d="M38.1176 45.7505C38.1176 45.7505 37.211 45.2689 36.9301 45.2204L36.6498 45.1726L36.8566 44.0928C36.8566 44.0928 37.6942 44.4964 37.6892 44.5191C37.6842 44.5418 38.1182 45.7513 38.1182 45.7513L38.1176 45.7505Z" fill="#6B7B3E"/>
<path d="M38.119 45.7503C38.1163 44.9303 38.3118 44.2811 38.3118 44.2811L36.8574 44.0918L38.119 45.7503Z" fill="#4B5B19"/>
<path d="M39.3243 44.8168C39.3243 44.8168 38.3207 44.6001 38.0378 44.6303L37.7549 44.6604L37.659 43.5651C37.659 43.5651 38.5752 43.7254 38.5762 43.7486C38.5772 43.7717 39.3243 44.8168 39.3243 44.8168Z" fill="#6B7B3E"/>
<path d="M39.3235 44.8166C39.0978 44.028 39.1085 43.3511 39.1085 43.3511L37.6582 43.5649L39.3235 44.8166Z" fill="#4B5B19"/>
<path d="M39.4591 43.6126C39.4591 43.6126 38.4555 43.396 38.1726 43.4262L37.8896 43.4563L37.7937 42.361C37.7937 42.361 38.71 42.5213 38.711 42.5445C38.712 42.5676 39.4583 43.6132 39.4583 43.6132L39.4591 43.6126Z" fill="#6B7B3E"/>
<path d="M39.4583 43.6124C39.2326 42.8238 39.2433 42.147 39.2433 42.147L37.793 42.3608L39.4583 43.6124Z" fill="#4B5B19"/>
<path d="M40.9727 41.2264C40.9727 41.2264 39.9692 41.0097 39.6862 41.0399L39.4033 41.0701L39.3074 39.9748C39.3074 39.9748 40.2236 40.135 40.2246 40.1582C40.2257 40.1814 40.9727 41.2264 40.9727 41.2264Z" fill="#6B7B3E"/>
<path d="M40.972 41.2262C40.7463 40.4376 40.757 39.7608 40.757 39.7608L39.3066 39.9746L40.972 41.2262Z" fill="#4B5B19"/>
<path d="M40.1387 42.7147C40.1387 42.7147 39.1352 42.498 38.8522 42.5282L38.5693 42.5584L38.4734 41.4631C38.4734 41.4631 39.3896 41.6233 39.3907 41.6465C39.3917 41.6697 40.1387 42.7147 40.1387 42.7147Z" fill="#6B7B3E"/>
<path d="M40.138 42.7145C39.9123 41.9259 39.923 41.2491 39.923 41.2491L38.4727 41.4629L40.138 42.7145Z" fill="#4B5B19"/>
<path d="M38.6388 42.3744C38.6388 42.3744 37.6352 42.1577 37.3523 42.1879L37.0693 42.2181L36.9734 41.1228C36.9734 41.1228 37.8897 41.283 37.8907 41.3062C37.8917 41.3294 38.6388 42.3744 38.6388 42.3744Z" fill="#6B7B3E"/>
<path d="M38.638 42.3742C38.4123 41.5856 38.423 40.9087 38.423 40.9087L36.9727 41.1226L38.638 42.3742Z" fill="#4B5B19"/>
<path d="M38.1036 43.7176C38.1036 43.7176 37.1 43.5009 36.8171 43.5311L36.5341 43.5613L36.4383 42.466C36.4383 42.466 37.3545 42.6262 37.3555 42.6494C37.3565 42.6726 38.1041 43.7184 38.1041 43.7184L38.1036 43.7176Z" fill="#6B7B3E"/>
<path d="M38.1028 43.7174C37.8771 42.9288 37.8878 42.252 37.8878 42.252L36.4375 42.4658L38.1028 43.7174Z" fill="#4B5B19"/>
<path d="M37.3985 44.8543C37.3985 44.8543 36.395 44.6377 36.112 44.6678L35.8291 44.698L35.7332 43.6027C35.7332 43.6027 36.6494 43.763 36.6504 43.7861C36.6515 43.8093 37.3985 44.8543 37.3985 44.8543Z" fill="#6B7B3E"/>
<path d="M37.3978 44.8541C37.1721 44.0655 37.1828 43.3887 37.1828 43.3887L35.7324 43.6025L37.3978 44.8541Z" fill="#4B5B19"/>
<path d="M36.2201 46.1154C36.2201 46.1154 35.2894 45.682 35.0063 45.6486L34.7233 45.6152L34.8724 44.5258C34.8724 44.5258 35.7307 44.8846 35.7265 44.9068C35.7228 44.9298 36.2196 46.1146 36.2196 46.1146L36.2201 46.1154Z" fill="#6B7B3E"/>
<path d="M36.2202 46.1152C36.1753 45.2967 36.3352 44.6387 36.3352 44.6387L34.873 44.5264L36.2194 46.1157L36.2202 46.1152Z" fill="#4B5B19"/>
<path d="M35.2162 46.6916C35.2162 46.6916 34.2855 46.2581 34.0024 46.2247L33.7194 46.1913L33.8685 45.1019C33.8685 45.1019 34.7268 45.4608 34.7226 45.483C34.7189 45.506 35.2157 46.6908 35.2157 46.6908L35.2162 46.6916Z" fill="#6B7B3E"/>
<path d="M35.2163 46.6914C35.1709 45.8721 35.3313 45.2149 35.3313 45.2149L33.8691 45.1025L35.2155 46.6919L35.2163 46.6914Z" fill="#4B5B19"/>
<path d="M27.1364 22.1813C27.1364 22.1813 28.017 22.5329 28.279 22.5487L28.5411 22.5646L28.4594 23.5762C28.4594 23.5762 27.6503 23.2896 27.6522 23.269C27.6549 23.2479 27.1356 22.1818 27.1356 22.1818L27.1364 22.1813Z" fill="#6B7B3E"/>
<path d="M27.1366 22.1815C27.2212 22.9332 27.1072 23.5485 27.1072 23.5485L28.4604 23.5759L27.1373 22.181L27.1366 22.1815Z" fill="#4B5B19"/>
<path d="M24.0117 25.7729C24.0117 25.7729 24.9588 25.8133 25.2119 25.7409L25.4642 25.6691L25.7231 26.6499C25.7231 26.6499 24.8647 26.6481 24.8598 26.6275C24.8549 26.607 24.0117 25.7729 24.0117 25.7729Z" fill="#6B7B3E"/>
<path d="M24.0117 25.7731C24.3409 26.4549 24.4367 27.0728 24.4367 27.0728L25.7223 26.6506L24.0117 25.7731Z" fill="#4B5B19"/>
<path d="M24.8223 24.4863C24.8223 24.4863 25.7693 24.5266 26.0224 24.4543L26.2747 24.3824L26.5336 25.3633C26.5336 25.3633 25.6753 25.3614 25.6704 25.3409C25.6655 25.3204 24.8223 24.4863 24.8223 24.4863Z" fill="#6B7B3E"/>
<path d="M24.8223 24.4865C25.1514 25.1682 25.2472 25.7862 25.2472 25.7862L26.5329 25.364L24.8223 24.4865Z" fill="#4B5B19"/>
<path d="M25.8887 23.2461C25.8887 23.2461 26.8177 23.4351 27.0785 23.4041L27.3393 23.3731L27.4406 24.3829C27.4406 24.3829 26.5936 24.2459 26.5916 24.2246C26.5908 24.2035 25.8892 23.2469 25.8892 23.2469L25.8887 23.2461Z" fill="#6B7B3E"/>
<path d="M25.8896 23.2463C26.1071 23.9711 26.1048 24.5968 26.1048 24.5968L27.441 24.3823L25.8896 23.2463Z" fill="#4B5B19"/>
<path d="M21.7852 31.709C21.7852 31.709 22.6811 31.3988 22.8898 31.2396L23.0984 31.0804L23.6986 31.8981C23.6986 31.8981 22.8989 32.2109 22.8873 32.1939C22.8757 32.1768 21.7852 31.709 21.7852 31.709Z" fill="#6B7B3E"/>
<path d="M21.7852 31.709C22.3409 32.2228 22.6571 32.7621 22.6571 32.7621L23.6986 31.8981L21.7852 31.709Z" fill="#4B5B19"/>
<path d="M22.0547 30.3672C22.0547 30.3672 22.9506 30.057 23.1593 29.8978L23.368 29.7386L23.9682 30.5563C23.9682 30.5563 23.1685 30.8691 23.1568 30.8521C23.1452 30.835 22.0547 30.3672 22.0547 30.3672Z" fill="#6B7B3E"/>
<path d="M22.0547 30.3672C22.6104 30.881 22.9267 31.4203 22.9267 31.4203L23.9682 30.5563L22.0547 30.3672Z" fill="#4B5B19"/>
<path d="M22.4988 28.7856C22.4988 28.7856 23.4307 28.61 23.6603 28.4832L23.8899 28.3564L24.3635 29.2535C24.3635 29.2535 23.5271 29.4458 23.5178 29.4271C23.5085 29.4085 22.498 28.7861 22.498 28.7861L22.4988 28.7856Z" fill="#6B7B3E"/>
<path d="M22.4981 28.7854C22.9725 29.375 23.206 29.9548 23.206 29.9548L24.3635 29.2528L22.4981 28.7854Z" fill="#4B5B19"/>
<path d="M23.2012 27.2852C23.2012 27.2852 24.1449 27.197 24.3859 27.092L24.6269 26.9869L25.0152 27.924C25.0152 27.924 24.164 28.0377 24.157 28.0175C24.1492 27.9978 23.2012 27.2852 23.2012 27.2852Z" fill="#6B7B3E"/>
<path d="M23.2017 27.2853C23.6195 27.917 23.7987 28.5156 23.7987 28.5156L25.0157 27.9242L23.2017 27.2853Z" fill="#4B5B19"/>
<path d="M21.6191 33.167C21.6191 33.167 22.515 32.8568 22.7237 32.6976L22.9324 32.5384L23.5326 33.3561C23.5326 33.3561 22.7329 33.669 22.7213 33.6519C22.7096 33.6348 21.6191 33.167 21.6191 33.167Z" fill="#6B7B3E"/>
<path d="M21.6191 33.167C22.1749 33.6808 22.4911 34.2201 22.4911 34.2201L23.5326 33.3561L21.6191 33.167Z" fill="#4B5B19"/>
<path d="M21.3967 34.7619C21.3967 34.7619 22.1963 34.2536 22.3634 34.05L22.5297 33.8469L23.3024 34.5039C23.3024 34.5039 22.5964 34.9928 22.5809 34.9783C22.5653 34.9639 21.3962 34.7611 21.3962 34.7611L21.3967 34.7619Z" fill="#6B7B3E"/>
<path d="M21.3965 34.7617C22.0555 35.1335 22.4884 35.5855 22.4884 35.5855L23.3027 34.5045L21.397 34.7625L21.3965 34.7617Z" fill="#4B5B19"/>
<path d="M21.5794 36.6139C21.5794 36.6139 22.2249 35.9195 22.3344 35.6813L22.4445 35.4425L23.3584 35.8829C23.3584 35.8829 22.7994 36.5342 22.7803 36.5245C22.7612 36.5148 21.5794 36.6139 21.5794 36.6139Z" fill="#6B7B3E"/>
<path d="M21.5801 36.6138C22.3116 36.8066 22.8444 37.1348 22.8444 37.1348L23.359 35.8828L21.5801 36.6138Z" fill="#4B5B19"/>
<path d="M21.9573 37.6942C21.9573 37.6942 22.6967 37.1008 22.8393 36.8797L22.9825 36.6594L23.8234 37.2279C23.8234 37.2279 23.1762 37.7915 23.1589 37.7794C23.1416 37.7673 21.9573 37.6942 21.9573 37.6942Z" fill="#6B7B3E"/>
<path d="M21.957 37.6943C22.6534 37.9907 23.1329 38.3927 23.1329 38.3927L23.8231 37.228L21.957 37.6943Z" fill="#4B5B19"/>
<path d="M22.3536 39.3214C22.3536 39.3214 22.9355 38.5737 23.0238 38.326L23.112 38.0784L24.0609 38.4369C24.0609 38.4369 23.5613 39.1352 23.542 39.1268C23.5226 39.1184 22.3536 39.3214 22.3536 39.3214Z" fill="#6B7B3E"/>
<path d="M22.3535 39.3213C23.0995 39.4486 23.6589 39.7291 23.6589 39.7291L24.0608 38.4368L22.3535 39.3213Z" fill="#4B5B19"/>
<path d="M22.9674 40.8706C22.9674 40.8706 23.3415 39.9997 23.3641 39.7376L23.3868 39.4755L24.3955 39.5829C24.3955 39.5829 24.0887 40.3841 24.0676 40.3815C24.0465 40.3788 22.9669 40.8698 22.9669 40.8698L22.9674 40.8706Z" fill="#6B7B3E"/>
<path d="M22.9668 40.8708C23.7208 40.8063 24.3326 40.9351 24.3326 40.9351L24.395 39.5831L22.9663 40.8701L22.9668 40.8708Z" fill="#4B5B19"/>
<path d="M23.5312 42.0551C23.5312 42.0551 24.0693 41.2748 24.1429 41.0224L24.2165 40.7699L25.1847 41.0732C25.1847 41.0732 24.7265 41.799 24.7056 41.7917C24.686 41.7846 23.5307 42.0544 23.5307 42.0544L23.5312 42.0551Z" fill="#6B7B3E"/>
<path d="M23.5312 42.0552C24.2833 42.1397 24.8578 42.3872 24.8578 42.3872L25.1852 41.074L23.5312 42.0552Z" fill="#4B5B19"/>
<path d="M24.2977 43.4723C24.2977 43.4723 24.6404 42.5886 24.6549 42.3263L24.6682 42.0638L25.6802 42.1361C25.6802 42.1361 25.4012 42.9479 25.3806 42.946C25.3594 42.9434 24.2982 43.4731 24.2982 43.4731L24.2977 43.4723Z" fill="#6B7B3E"/>
<path d="M24.2968 43.4721C25.0484 43.3807 25.6642 43.4886 25.6642 43.4886L25.6794 42.1358L24.2968 43.4721Z" fill="#4B5B19"/>
<path d="M25.5425 44.8544C25.5425 44.8544 25.6514 43.9129 25.598 43.656L25.5446 43.399L26.5421 43.2129C26.5421 43.2129 26.4771 44.0688 26.4569 44.0724C26.436 44.0752 25.5422 44.8557 25.5422 44.8557L25.5425 44.8544Z" fill="#6B7B3E"/>
<path d="M25.5432 44.8541C26.2471 44.5759 26.8701 44.5243 26.8701 44.5243L26.543 43.2114L25.5432 44.8541Z" fill="#4B5B19"/>
<path d="M26.4877 45.5009C26.4877 45.5009 26.7311 44.5849 26.716 44.3224L26.7008 44.0598L27.7146 44.0195C27.7146 44.0195 27.5273 44.8576 27.5056 44.8575C27.484 44.8575 26.4877 45.5009 26.4877 45.5009Z" fill="#6B7B3E"/>
<path d="M26.4879 45.5011C27.2241 45.327 27.8489 45.3663 27.8489 45.3663L27.7148 44.0197L26.4879 45.5011Z" fill="#4B5B19"/>
<path d="M27.7686 46.5771C27.7686 46.5771 27.7941 45.6299 27.7188 45.3776L27.6428 45.1259L28.6196 44.8527C28.6196 44.8527 28.6305 45.7114 28.61 45.7163C28.5895 45.7212 27.7678 46.5776 27.7678 46.5776L27.7686 46.5771Z" fill="#6B7B3E"/>
<path d="M27.7689 46.5773C28.4451 46.2383 29.0616 46.1321 29.0616 46.1321L28.62 44.8529L27.7689 46.5773Z" fill="#4B5B19"/>
<path d="M29.3307 47.3811C29.3307 47.3811 29.1156 46.458 28.979 46.234L28.8423 46.0099L29.7182 45.4985C29.7182 45.4985 29.9458 46.3267 29.9272 46.336C29.9082 46.3466 29.3299 47.3817 29.3299 47.3817L29.3307 47.3811Z" fill="#6B7B3E"/>
<path d="M29.3301 47.381C29.8994 46.8818 30.4683 46.6239 30.4683 46.6239L29.7176 45.4984L29.3293 47.3815L29.3301 47.381Z" fill="#4B5B19"/>
<path d="M28.1207 22.2623C28.1207 22.2623 29.0013 22.6139 29.2634 22.6298L29.5254 22.6457L29.4438 23.6573C29.4438 23.6573 28.6347 23.3706 28.6366 23.35C28.6393 23.3289 28.12 22.2629 28.12 22.2629L28.1207 22.2623Z" fill="#6B7B3E"/>
<path d="M28.1209 22.2626C28.2048 23.0148 28.0916 23.6296 28.0916 23.6296L29.4448 23.657L28.1217 22.262L28.1209 22.2626Z" fill="#4B5B19"/>
<path d="M24.9961 25.854C24.9961 25.854 25.9432 25.8943 26.1963 25.822L26.4486 25.7501L26.7075 26.731C26.7075 26.731 25.8491 26.7291 25.8442 26.7086C25.8393 26.688 24.9961 25.854 24.9961 25.854Z" fill="#6B7B3E"/>
<path d="M24.9961 25.8542C25.3252 26.5359 25.421 27.1538 25.421 27.1538L26.7067 26.7316L24.9961 25.8542Z" fill="#4B5B19"/>
<path d="M25.8066 24.5674C25.8066 24.5674 26.7537 24.6077 27.0068 24.5353L27.2591 24.4635L27.518 25.4443C27.518 25.4443 26.6596 25.4425 26.6548 25.4219C26.6499 25.4014 25.8066 24.5674 25.8066 24.5674Z" fill="#6B7B3E"/>
<path d="M25.8066 24.5675C26.1358 25.2493 26.2316 25.8672 26.2316 25.8672L27.5172 25.445L25.8066 24.5675Z" fill="#4B5B19"/>
<path d="M26.873 23.3281C26.873 23.3281 27.8021 23.5172 28.0629 23.4861L28.3236 23.4551L28.4249 24.4649C28.4249 24.4649 27.578 24.328 27.5759 24.3066C27.5739 24.2853 26.8736 23.3289 26.8736 23.3289L26.873 23.3281Z" fill="#6B7B3E"/>
<path d="M26.874 23.3283C27.0915 24.0532 27.0891 24.6788 27.0891 24.6788L28.4253 24.4643L26.874 23.3283Z" fill="#4B5B19"/>
<path d="M22.7695 31.79C22.7695 31.79 23.6654 31.4799 23.8741 31.3207L24.0828 31.1614L24.683 31.9791C24.683 31.9791 23.8833 32.292 23.8717 32.2749C23.86 32.2578 22.7695 31.79 22.7695 31.79Z" fill="#6B7B3E"/>
<path d="M22.7695 31.79C23.3253 32.3038 23.6415 32.8432 23.6415 32.8432L24.683 31.9791L22.7695 31.79Z" fill="#4B5B19"/>
<path d="M23.0391 30.4482C23.0391 30.4482 23.935 30.1381 24.1437 29.9789L24.3524 29.8196L24.9525 30.6374C24.9525 30.6374 24.1528 30.9502 24.1412 30.9331C24.1296 30.916 23.0391 30.4482 23.0391 30.4482Z" fill="#6B7B3E"/>
<path d="M23.0391 30.4482C23.5948 30.962 23.911 31.5014 23.911 31.5014L24.9525 30.6374L23.0391 30.4482Z" fill="#4B5B19"/>
<path d="M23.4832 28.8667C23.4832 28.8667 24.4143 28.6916 24.6447 28.5643L24.8743 28.4374L25.3479 29.3345C25.3479 29.3345 24.5115 29.5269 24.5022 29.5082C24.4929 29.4895 23.4824 28.8672 23.4824 28.8672L23.4832 28.8667Z" fill="#6B7B3E"/>
<path d="M23.4824 28.8665C23.9568 29.4561 24.1904 30.0359 24.1904 30.0359L25.3479 29.3338L23.4824 28.8665Z" fill="#4B5B19"/>
<path d="M24.1875 27.3667C24.1875 27.3667 25.1312 27.2786 25.3722 27.1735L25.6133 27.0684L26.0015 28.0055C26.0015 28.0055 25.1503 28.1193 25.1433 28.099C25.1355 28.0793 24.1883 27.3662 24.1883 27.3662L24.1875 27.3667Z" fill="#6B7B3E"/>
<path d="M24.1869 27.3668C24.6046 27.9985 24.7831 28.5976 24.7831 28.5976L26.0001 28.0062L24.1861 27.3674L24.1869 27.3668Z" fill="#4B5B19"/>
<path d="M22.6035 33.249C22.6035 33.249 23.4994 32.9389 23.7081 32.7797L23.9168 32.6204L24.517 33.4381C24.517 33.4381 23.7173 33.751 23.7056 33.7339C23.694 33.7168 22.6035 33.249 22.6035 33.249Z" fill="#6B7B3E"/>
<path d="M22.6035 33.249C23.1592 33.7628 23.4755 34.3022 23.4755 34.3022L24.517 33.4381L22.6035 33.249Z" fill="#4B5B19"/>
<path d="M22.3811 34.8434C22.3811 34.8434 23.1807 34.3352 23.3478 34.1315L23.5141 33.9284L24.2867 34.5855C24.2867 34.5855 23.5808 35.0743 23.5652 35.0599C23.5497 35.0454 22.3806 34.8427 22.3806 34.8427L22.3811 34.8434Z" fill="#6B7B3E"/>
<path d="M22.3809 34.8433C23.0399 35.215 23.4728 35.667 23.4728 35.667L24.287 34.5861L22.3814 34.844L22.3809 34.8433Z" fill="#4B5B19"/>
<path d="M23.1877 35.632C23.1877 35.632 23.9873 35.1237 24.1544 34.9201L24.3207 34.717L25.0934 35.374C25.0934 35.374 24.3874 35.8629 24.3719 35.8485C24.3563 35.834 23.1872 35.6312 23.1872 35.6312L23.1877 35.632Z" fill="#6B7B3E"/>
<path d="M23.1875 35.6318C23.8473 36.0031 24.2794 36.4556 24.2794 36.4556L25.0937 35.3746L23.188 35.6326L23.1875 35.6318Z" fill="#4B5B19"/>
<path d="M23.553 34.092C23.553 34.092 24.3526 33.5837 24.5196 33.3801L24.6859 33.177L25.4586 33.834C25.4586 33.834 24.7526 34.3229 24.7371 34.3084C24.7216 34.294 23.5524 34.0912 23.5524 34.0912L23.553 34.092Z" fill="#6B7B3E"/>
<path d="M23.5527 34.0918C24.2126 34.463 24.6447 34.9155 24.6447 34.9155L25.4589 33.8346L23.5533 34.0926L23.5527 34.0918Z" fill="#4B5B19"/>
<path d="M23.7737 32.487C23.7737 32.487 24.5733 31.9787 24.7403 31.7751L24.9066 31.572L25.6798 32.2298C25.6798 32.2298 24.9738 32.7187 24.9583 32.7042C24.9428 32.6898 23.7737 32.487 23.7737 32.487Z" fill="#6B7B3E"/>
<path d="M23.7734 32.4868C24.4333 32.8581 24.8654 33.3106 24.8654 33.3106L25.6796 32.2296L23.774 32.4876L23.7734 32.4868Z" fill="#4B5B19"/>
<path d="M24.4043 30.1479C24.4043 30.1479 25.3247 29.9222 25.548 29.7827L25.7704 29.6437L26.2924 30.5135C26.2924 30.5135 25.4677 30.7513 25.4571 30.7323C25.4465 30.7134 24.4043 30.1479 24.4043 30.1479Z" fill="#6B7B3E"/>
<path d="M24.4043 30.1479C24.9102 30.7104 25.1752 31.2779 25.1752 31.2779L26.2924 30.5135L24.4043 30.1479Z" fill="#4B5B19"/>
<path d="M24.7637 28.4404C24.7637 28.4404 25.6841 28.2147 25.9073 28.0752L26.1298 27.9361L26.6518 28.8059C26.6518 28.8059 25.8271 29.0437 25.8165 29.0248C25.8059 29.0059 24.7637 28.4404 24.7637 28.4404Z" fill="#6B7B3E"/>
<path d="M24.7637 28.4404C25.2696 29.0029 25.5345 29.5704 25.5345 29.5704L26.6518 28.8059L24.7637 28.4404Z" fill="#4B5B19"/>
<path d="M22.5638 36.6954C22.5638 36.6954 23.2093 36.001 23.3187 35.7628L23.4289 35.5241L24.3427 35.9644C24.3427 35.9644 23.7838 36.6157 23.7647 36.606C23.7455 36.5963 22.5638 36.6954 22.5638 36.6954Z" fill="#6B7B3E"/>
<path d="M22.5645 36.6953C23.296 36.8881 23.8288 37.2164 23.8288 37.2164L24.3434 35.9644L22.5645 36.6953Z" fill="#4B5B19"/>
<path d="M22.9417 37.7757C22.9417 37.7757 23.681 37.1823 23.8237 36.9612L23.9669 36.7409L24.8077 37.3094C24.8077 37.3094 24.1606 37.873 24.1433 37.8609C24.126 37.8489 22.9417 37.7757 22.9417 37.7757Z" fill="#6B7B3E"/>
<path d="M22.9414 37.7759C23.6378 38.0722 24.1173 38.4742 24.1173 38.4742L24.8074 37.3096L22.9414 37.7759Z" fill="#4B5B19"/>
<path d="M23.338 39.4024C23.338 39.4024 23.9199 38.6547 24.0081 38.4071L24.0963 38.1594L25.0453 38.5179C25.0453 38.5179 24.5457 39.2163 24.5263 39.2079C24.507 39.1995 23.338 39.4024 23.338 39.4024Z" fill="#6B7B3E"/>
<path d="M23.3379 39.4023C24.0839 39.5296 24.6433 39.8101 24.6433 39.8101L25.0452 38.5178L23.3379 39.4023Z" fill="#4B5B19"/>
<path d="M23.9537 40.9522C23.9537 40.9522 24.3278 40.0812 24.3505 39.8191L24.3731 39.557L25.3819 39.6645C25.3819 39.6645 25.0751 40.4657 25.0539 40.463C25.0328 40.4603 23.9532 40.9514 23.9532 40.9514L23.9537 40.9522Z" fill="#6B7B3E"/>
<path d="M23.9531 40.9524C24.7071 40.8878 25.319 41.0167 25.319 41.0167L25.3813 39.6647L23.9526 40.9516L23.9531 40.9524Z" fill="#4B5B19"/>
<path d="M24.5175 42.1357C24.5175 42.1357 25.0557 41.3554 25.1292 41.1029L25.2028 40.8505L26.171 41.1538C26.171 41.1538 25.7128 41.8796 25.6919 41.8723C25.6723 41.8652 24.517 42.1349 24.517 42.1349L24.5175 42.1357Z" fill="#6B7B3E"/>
<path d="M24.5176 42.1357C25.2697 42.2202 25.8441 42.4678 25.8441 42.4678L26.1716 41.1546L24.5176 42.1357Z" fill="#4B5B19"/>
<path d="M25.282 43.5528C25.282 43.5528 25.6247 42.6692 25.6393 42.4069L25.6526 42.1444L26.6646 42.2166C26.6646 42.2166 26.3856 43.0285 26.3649 43.0266C26.3438 43.024 25.2826 43.5536 25.2826 43.5536L25.282 43.5528Z" fill="#6B7B3E"/>
<path d="M25.2812 43.5526C26.0328 43.4612 26.6486 43.5692 26.6486 43.5692L26.6638 42.2164L25.2812 43.5526Z" fill="#4B5B19"/>
<path d="M26.5269 44.9364C26.5269 44.9364 26.6358 43.9949 26.5824 43.738L26.529 43.4811L27.5265 43.2949C27.5265 43.2949 27.4615 44.1508 27.4412 44.1544C27.4204 44.1572 26.5266 44.9377 26.5266 44.9377L26.5269 44.9364Z" fill="#6B7B3E"/>
<path d="M26.5275 44.9362C27.2314 44.6579 27.8545 44.6063 27.8545 44.6063L27.5274 43.2934L26.5275 44.9362Z" fill="#4B5B19"/>
<path d="M27.4721 45.5829C27.4721 45.5829 27.7154 44.6669 27.7003 44.4044L27.6852 44.1419L28.699 44.1015C28.699 44.1015 28.5116 44.9396 28.49 44.9396C28.4684 44.9395 27.4721 45.5829 27.4721 45.5829Z" fill="#6B7B3E"/>
<path d="M27.4723 45.5831C28.2085 45.409 28.8332 45.4484 28.8332 45.4484L28.6992 44.1017L27.4723 45.5831Z" fill="#4B5B19"/>
<path d="M28.7549 46.6581C28.7549 46.6581 28.7804 45.7109 28.7052 45.4587L28.6292 45.2069L29.606 44.9337C29.606 44.9337 29.6169 45.7925 29.5963 45.7974C29.5758 45.8023 28.7541 46.6587 28.7541 46.6587L28.7549 46.6581Z" fill="#6B7B3E"/>
<path d="M28.7553 46.6584C29.4315 46.3194 30.048 46.2132 30.048 46.2132L29.6063 44.934L28.7553 46.6584Z" fill="#4B5B19"/>
<path d="M30.3151 47.4627C30.3151 47.4627 30.1 46.5395 29.9633 46.3155L29.8266 46.0915L30.7025 45.5801C30.7025 45.5801 30.9302 46.4082 30.9115 46.4176C30.8926 46.4282 30.3143 47.4632 30.3143 47.4632L30.3151 47.4627Z" fill="#6B7B3E"/>
<path d="M30.3145 47.4626C30.8838 46.9633 31.4527 46.7054 31.4527 46.7054L30.7019 45.5799L30.3137 47.4631L30.3145 47.4626Z" fill="#4B5B19"/>
<path d="M23.9605 36.8746C23.9605 36.8746 24.7778 36.394 24.9504 36.1968L25.1238 35.9991L25.8738 36.6829C25.8738 36.6829 25.1522 37.1472 25.1362 37.132C25.1214 37.117 23.96 36.8738 23.96 36.8738L23.9605 36.8746Z" fill="#6B7B3E"/>
<path d="M23.9609 36.8745C24.6069 37.2688 25.0236 37.7353 25.0236 37.7353L25.8743 36.6829L23.9609 36.8745Z" fill="#4B5B19"/>
<path d="M23.9449 35.9678C23.9449 35.9678 24.7622 35.4872 24.9348 35.2901L25.1082 35.0924L25.8582 35.7762C25.8582 35.7762 25.1366 36.2405 25.1205 36.2253C25.1058 36.2103 23.9443 35.967 23.9443 35.967L23.9449 35.9678Z" fill="#6B7B3E"/>
<path d="M23.9453 35.9678C24.5913 36.3621 25.0079 36.8285 25.0079 36.8285L25.8586 35.7762L23.9453 35.9678Z" fill="#4B5B19"/>
<path d="M24.146 38.647C24.146 38.647 24.9634 38.1664 25.136 37.9693L25.3094 37.7716L26.0594 38.4554C26.0594 38.4554 25.3378 38.9197 25.3217 38.9044C25.307 38.8895 24.1455 38.6462 24.1455 38.6462L24.146 38.647Z" fill="#6B7B3E"/>
<path d="M24.1465 38.647C24.7925 39.0413 25.2091 39.5077 25.2091 39.5077L26.0598 38.4554L24.1465 38.647Z" fill="#4B5B19"/>
<path d="M37.4522 21.3015C37.4522 21.3015 37.1555 22.2845 37.1618 22.569L37.1693 22.8537L36.07 22.8603C36.07 22.8603 36.3036 21.96 36.3258 21.9608C36.3487 21.9611 37.4508 21.3013 37.4508 21.3013L37.4522 21.3015Z" fill="#6B7B3E"/>
<path d="M37.4524 21.3017C36.6483 21.4629 35.9743 21.398 35.9743 21.398L36.0708 22.8612L37.4524 21.3017Z" fill="#4B5B19"/>
<path d="M38.667 22.2293C38.667 22.2293 38.3704 23.2123 38.3766 23.4968L38.3841 23.7815L37.2848 23.788C37.2848 23.788 37.5184 22.8878 37.5414 22.888C37.5643 22.8883 38.6665 22.2285 38.6665 22.2285L38.667 22.2293Z" fill="#6B7B3E"/>
<path d="M38.6672 22.2294C37.8631 22.3907 37.1892 22.3257 37.1892 22.3257L37.2856 23.789L38.6672 22.2294Z" fill="#4B5B19"/>
<path d="M38.5306 23.765C38.5306 23.765 38.0026 24.6453 37.9397 24.9234L37.8776 25.201L36.8103 24.9391C36.8103 24.9391 37.2571 24.1232 37.2788 24.13C37.3013 24.1363 38.5312 23.7658 38.5312 23.7658L38.5306 23.765Z" fill="#6B7B3E"/>
<path d="M38.5314 23.7651C37.7128 23.7248 37.0744 23.4969 37.0744 23.4969L36.8097 24.939L38.5319 23.7659L38.5314 23.7651Z" fill="#4B5B19"/>
<path d="M37.4302 23.2373C37.4302 23.2373 37.1265 24.2183 37.1319 24.5033L37.1374 24.7883L36.038 24.7881C36.038 24.7881 36.2774 23.8895 36.3003 23.8898C36.3238 23.8909 37.4302 23.2373 37.4302 23.2373Z" fill="#6B7B3E"/>
<path d="M37.431 23.2372C36.6258 23.3935 35.952 23.3239 35.952 23.3239L36.0388 24.788L37.4302 23.2378L37.431 23.2372Z" fill="#4B5B19"/>
<path d="M36.0408 21.3405C36.0408 21.3405 35.7575 22.3281 35.7687 22.6115L35.7796 22.8962L34.6807 22.9184C34.6807 22.9184 34.9013 22.0156 34.925 22.0154C34.9479 22.0157 36.0416 21.34 36.0416 21.34L36.0408 21.3405Z" fill="#6B7B3E"/>
<path d="M36.0416 21.3405C35.24 21.5137 34.565 21.4574 34.565 21.4574L34.682 22.9191L36.0421 21.3413L36.0416 21.3405Z" fill="#4B5B19"/>
<path d="M34.5809 19.4928C34.5809 19.4928 34.675 20.5155 34.7891 20.7765L34.9033 21.0375L33.8878 21.4575C33.8878 21.4575 33.7658 20.5357 33.7863 20.5275C33.8081 20.5194 34.5809 19.4928 34.5809 19.4928Z" fill="#6B7B3E"/>
<path d="M34.5813 19.4928C33.8971 19.9452 33.2473 20.1377 33.2473 20.1377L33.8869 21.4571L34.5813 19.4928Z" fill="#4B5B19"/>
<path d="M32.7738 19.2715C32.7738 19.2715 33.43 20.0612 33.671 20.2131L33.9122 20.3636L33.3117 21.2843C33.3117 21.2843 32.6895 20.5929 32.7026 20.5738C32.7157 20.5546 32.7738 19.2715 32.7738 19.2715Z" fill="#6B7B3E"/>
<path d="M32.7729 19.2715C32.4639 20.031 32.0373 20.558 32.0373 20.558L33.3107 21.2843L32.7729 19.2715Z" fill="#4B5B19"/>
<path d="M31.9476 20.248C31.9476 20.248 32.6038 21.0378 32.8448 21.1897L33.086 21.3402L32.4855 22.2608C32.4855 22.2608 31.8634 21.5695 31.877 21.5511C31.8901 21.5319 31.9482 20.2488 31.9482 20.2488L31.9476 20.248Z" fill="#6B7B3E"/>
<path d="M31.9467 20.2481C31.6377 21.0076 31.2112 21.5346 31.2112 21.5346L32.4845 22.2609L31.9467 20.2481Z" fill="#4B5B19"/>
<path d="M34.7946 21.0373C34.7946 21.0373 34.5766 22.0406 34.606 22.3241L34.6362 22.607L33.5412 22.7016C33.5412 22.7016 33.7019 21.7861 33.7246 21.7843C33.7478 21.7833 34.7938 21.0378 34.7938 21.0378L34.7946 21.0373Z" fill="#6B7B3E"/>
<path d="M34.7941 21.0372C34.0057 21.2616 33.3284 21.2501 33.3284 21.2501L33.5414 22.701L34.7948 21.0367L34.7941 21.0372Z" fill="#4B5B19"/>
<path d="M33.2034 20.8563C33.2034 20.8563 32.2766 21.8503 31.9722 21.7506C31.6672 21.6515 31.5507 21.1318 31.5507 21.1318C31.5507 21.1318 31.247 21.7706 30.865 21.9058C30.4831 22.0409 30.3135 21.4448 30.3135 21.4448L30.2549 21.7076C30.1963 21.9703 30.06 22.3427 29.837 22.4242C29.6145 22.5064 29.2825 21.9789 29.2825 21.9789C29.2825 21.9789 29.4448 22.5242 29.0399 22.9944C28.6355 23.4654 27.9986 22.7557 27.9986 22.7557C27.9986 22.7557 28.1469 23.1571 28.2422 23.4821C28.3109 23.7149 28.2854 23.946 28.1748 24.0907C28.1982 23.9816 28.2062 23.9283 28.1924 23.948C28.1659 23.9876 28.1413 24.06 28.1149 24.1531C28.0821 24.18 28.0448 24.202 28.0027 24.217C27.754 24.3023 27.0696 23.9318 27.0696 23.9318C27.0696 23.9318 27.768 25.1306 27.5957 25.415C27.5625 25.4581 27.5282 25.4996 27.4916 25.5393C26.9947 26.0631 25.9551 25.6482 25.9551 25.6482C25.9551 25.6482 26.9594 26.7771 26.5645 27.1086C26.1697 27.4401 25.1929 27.5314 25.1929 27.5314C25.1929 27.5314 26.5457 28.2991 26.2501 28.7881C25.9551 29.2778 25.0712 29.5138 25.0712 29.5138C25.0712 29.5138 25.1454 29.5326 25.5956 29.8114C25.9907 30.056 26.0931 30.3716 25.9999 30.717C25.5531 31.1657 24.6232 30.9989 24.6232 30.9989C24.6232 30.9989 25.8338 31.9032 25.5144 32.3072C25.1951 32.7112 24.2557 32.9975 24.2557 32.9975C24.2557 32.9975 25.7348 33.4768 25.544 34.016C25.3532 34.5552 24.5346 34.9639 24.5346 34.9639C24.5346 34.9639 24.611 34.9676 25.1079 35.1497C25.36 35.2428 25.5203 35.378 25.6077 35.5447C25.6103 35.6169 25.6079 35.6969 25.5955 35.7838C25.5354 36.2146 24.6355 36.1217 24.6355 36.1217C24.6355 36.1217 25.4806 36.6248 25.5379 37.0643C25.5952 37.5039 24.5604 37.7302 24.5604 37.7302C24.5604 37.7302 25.7171 38.1734 25.6995 38.5013C25.6811 38.8299 24.9439 39.6299 24.9822 39.6595C25.0205 39.6891 26.0599 39.6313 26.0599 39.6313L25.295 40.6911L26.1671 40.5245L25.3646 42.0748L26.4912 41.8463L26.0209 43.4488L27.2993 43.0611L27.236 43.9227L27.6992 43.8118C27.6992 43.8118 29.1283 46.0382 30.4865 46.1429C33.5021 46.3747 36.8643 44.0231 37.8733 38.2285C38.1951 36.3814 38.2954 32.7188 38.292 31.9379C38.2826 29.8664 37.6821 27.0073 37.3273 26.1293C35.5773 21.8014 33.709 21.6236 33.3679 21.6752C33.0268 21.7268 33.1995 20.8556 33.1995 20.8556L33.2034 20.8563Z" fill="#FFE6C1"/>
<path d="M27.594 28.2581C26.9966 30.0461 26.5093 34.1202 26.6138 35.7337C26.7177 37.3464 26.7342 39.188 27.3283 40.4122C27.9224 41.6365 29.1362 43.2832 29.3131 43.9618C29.49 44.6404 30.2768 46.0926 31.468 45.7302C32.6596 45.3686 33.1386 45.1572 34.8878 42.9892C36.6363 40.8217 37.4132 38.9352 37.4766 37.029C37.5404 35.1235 37.2236 33.9309 37.2004 32.6986C37.1654 30.7866 36.2771 25.3022 34.2115 22.9706C33.2384 21.8726 30.0596 20.8722 27.5929 28.2565L27.594 28.2581Z" fill="#F4C895"/>
<path d="M27.3805 34.9664C27.3805 34.9664 27.351 38.9014 27.6901 39.8833C28.0293 40.8651 29.1164 42.1457 29.4466 42.7506C29.7768 43.3555 30.0955 44.0637 30.2352 44.5107C30.3749 44.9578 30.9647 45.5416 31.62 45.1486C32.2754 44.7556 33.2677 43.4806 34.0768 42.4407C34.8865 41.4015 36.083 39.8772 36.2925 39.2218C36.5019 38.5664 36.5031 37.5335 36.6233 35.9694C36.7426 34.4058 36.6006 33.1543 36.6348 32.7889C36.7838 31.1904 36.0156 27.8465 36.0156 27.8465L29.0255 35.3588L27.3813 34.9659L27.3805 34.9664Z" fill="#E77F40"/>
<path d="M30.7858 44.4726C30.9834 44.6575 31.2835 44.6792 31.5066 44.5261C32.2693 44.0054 32.1472 43.6226 34.6208 40.6156C35.7737 39.2142 36.0886 37.0832 36.0822 35.9156C36.0752 34.7472 36.6578 32.1348 36.2964 29.1027C35.9349 26.0706 34.3806 23.46 33.4834 22.9356C32.7956 22.5333 29.5825 22.3486 28.327 26.922C27.0716 31.4954 27.18 34.343 27.3456 36.5752C27.5112 38.8075 27.7404 40.0018 29.289 41.8797C30.98 43.93 30.3003 44.0201 30.7851 44.4731L30.7858 44.4726Z" fill="#FFCA00"/>
<path d="M30.3148 24.0863C30.0425 24.3957 29.8152 24.7495 29.6181 25.1111C28.8066 26.5948 28.4168 28.2938 28.5025 29.9632C28.5557 31.0058 28.9061 31.8856 29.3624 32.8059C29.7637 33.6136 30.934 33.5995 31.6555 33.2218C32.3738 32.8462 32.8237 32.1066 33.1544 31.3721C34.1586 29.1467 34.6711 26.3263 33.5292 24.1009C33.2576 23.572 32.8684 23.1574 32.2309 23.121C31.796 23.0967 31.3613 23.2496 30.9934 23.4888C30.7381 23.6548 30.5135 23.8589 30.3135 24.0861L30.3148 24.0863Z" fill="#FFDF82"/>
<path d="M28.0319 39.2002C28.0303 39.2445 28.0338 39.2898 28.0424 39.334C28.0868 39.5811 28.2176 39.8433 28.3269 40.0689C28.4629 40.3503 28.6235 40.6194 28.8051 40.8742C29.4661 41.8062 30.2339 42.4529 30.4033 43.0286C30.5727 43.6044 30.772 44.1439 31.1357 44.0371C31.4981 43.93 31.932 43.0434 32.559 42.2082C33.1859 41.373 34.2761 40.1382 34.6463 39.3484C35.0157 38.5591 35.2718 36.8023 35.3436 36.0032C35.4153 35.2041 35.5599 33.8677 35.6142 33.1998C35.6691 32.5327 35.0596 32.6341 34.4712 34.9594C33.8828 37.2847 33.0711 38.7765 32.0567 39.7687C31.5785 40.2365 30.9113 40.4535 30.2491 40.3976C29.9875 40.3757 29.724 40.3142 29.487 40.1983C29.1652 40.0412 28.9895 39.7449 28.7643 39.4743C28.6261 39.3081 28.4863 39.143 28.344 38.9808C28.3034 38.9346 28.2495 38.8838 28.1896 38.8961C28.1538 38.9035 28.1267 38.9322 28.1061 38.9621C28.0592 39.0316 28.0373 39.1147 28.034 39.1999L28.0319 39.2002Z" fill="#FFB41A"/>
<path d="M27.9963 36.715C27.8959 36.6777 27.7855 36.7427 27.7688 36.8484C27.7453 36.9974 27.7858 37.2187 28.108 37.4414C28.6701 37.8293 29.8904 38.1473 30.1958 37.9415C30.502 37.7352 30.2031 37.5433 29.6787 37.456C29.1548 37.3695 28.7655 37.2619 28.5319 37.0959C28.2984 36.9299 28.1106 36.7577 27.9989 36.7155C27.9984 36.7148 27.9971 36.7145 27.9958 36.7142L27.9963 36.715Z" fill="#FFB41A"/>
<path d="M28.2145 38.0887C28.3355 38.2029 29.2839 38.6607 29.539 38.6915C29.795 38.7217 29.6972 38.8202 29.5904 38.8486C29.4836 38.877 28.9091 38.6545 28.5185 38.4181C28.1279 38.1818 27.9723 38.107 28.0112 38.0555C28.05 38.0041 28.2145 38.0887 28.2145 38.0887Z" fill="#FFB41A"/>
<path d="M32.6461 36.2731C33.1978 36.4555 34.4265 36.5404 34.9718 36.3031C35.5164 36.0662 35.732 34.7724 35.357 34.821C34.9812 34.87 34.3345 35.5493 33.6517 35.5882C32.9688 35.627 32.5453 35.6745 32.4278 35.8842C32.3103 36.0938 32.5405 36.2382 32.6461 36.2731Z" fill="#FFB41A"/>
<path d="M27.8826 33.2991C27.8826 33.2991 27.8737 34.8898 27.9523 35.4307C28.0309 35.9717 28.8212 36.6679 29.4787 36.727C30.1362 36.7861 31.4096 36.104 31.6478 35.0869C31.8867 34.0693 31.0726 34.0339 30.1309 33.9365C29.1893 33.839 28.7312 32.4506 28.3259 32.4447C27.9206 32.4388 27.8813 33.2989 27.8813 33.2989L27.8826 33.2991Z" fill="#FFDF82"/>
</svg>
